<?xml version="1.0" encoding="UTF-8" standalone="no"?>
<svg
   xmlns:dc="http://purl.org/dc/elements/1.1/"
   xmlns:cc="http://creativecommons.org/ns#"
   xmlns:rdf="http://www.w3.org/1999/02/22-rdf-syntax-ns#"
   xmlns:svg="http://www.w3.org/2000/svg"
   xmlns="http://www.w3.org/2000/svg"
   xmlns:sodipodi="http://sodipodi.sourceforge.net/DTD/sodipodi-0.dtd"
   xmlns:inkscape="http://www.inkscape.org/namespaces/inkscape"
   sodipodi:docname="zoom_y.svg"
   inkscape:version="1.0 (4035a4fb49, 2020-05-01)"
   id="svg1626"
   version="1.1"
   viewBox="0 0 6.3499999 6.3499999"
   height="24"
   width="24">
  <defs
     id="defs1620" />
  <sodipodi:namedview
     inkscape:document-rotation="0"
     inkscape:window-maximized="1"
     inkscape:window-y="35"
     inkscape:window-x="0"
     inkscape:window-height="837"
     inkscape:window-width="1440"
     units="px"
     showgrid="true"
     inkscape:current-layer="layer2"
     inkscape:document-units="px"
     inkscape:cy="13.511699"
     inkscape:cx="4.413318"
     inkscape:zoom="16"
     inkscape:pageshadow="2"
     inkscape:pageopacity="0"
     borderopacity="1.0"
     bordercolor="#666666"
     pagecolor="#121316"
     id="base">
    <inkscape:grid
       dotted="false"
       empspacing="20"
       id="grid2171"
       type="xygrid" />
  </sodipodi:namedview>
  <metadata
     id="metadata1623">
    <rdf:RDF>
      <cc:Work
         rdf:about="">
        <dc:format>image/svg+xml</dc:format>
        <dc:type
           rdf:resource="http://purl.org/dc/dcmitype/StillImage" />
        <dc:title />
      </cc:Work>
    </rdf:RDF>
  </metadata>
  <g
     transform="translate(0,-291.70833)"
     id="layer1"
     inkscape:groupmode="layer"
     inkscape:label="Background" />
  <g
     inkscape:label="Icon"
     id="layer2"
     inkscape:groupmode="layer">
    <path
       sodipodi:nodetypes="sssccccsssssss"
       inkscape:connector-curvature="0"
       id="path4708"
       d="m 2.5135419,0.26457873 c -1.2420653,0 -2.24895829,1.00689307 -2.24895829,2.24895827 0,1.2420653 1.00689299,2.2489583 2.24895829,2.2489583 0.4869365,0 0.938231,-0.150405 1.3063802,-0.4134114 L 5.5562502,6.085412 C 5.8208335,6.3500006 6.3500002,5.820834 6.0854169,5.5562453 L 4.3490888,3.8199172 C 4.6120952,3.451768 4.7625002,3.0004735 4.7625002,2.513537 c 0,-1.2420652 -1.006893,-2.24895827 -2.2489583,-2.24895827 z m 0,0.52916666 c 0.9498145,0 1.7197917,0.76997721 1.7197917,1.71979161 0,0.9498145 -0.7699772,1.7197917 -1.7197917,1.7197917 -0.9498145,0 -1.71979163,-0.7699772 -1.71979163,-1.7197917 0,-0.9498144 0.76997713,-1.71979161 1.71979163,-1.71979161 z"
       style="fill:#ffffff;fill-opacity:1;stroke:none;stroke-width:0.264583" />
    <g
       transform="rotate(-90,2.5135416,2.5135416)"
       id="g839">
      <rect
         y="2.3812499"
         x="1.8520833"
         height="0.26458332"
         width="1.5875"
         id="rect847"
         style="fill:#ffffff;stroke:none;stroke-width:0.529167;stroke-linejoin:round" />
      <path
         sodipodi:nodetypes="cccc"
         id="path849"
         d="M 2.1166666,1.8520833 V 3.175 l -0.79375,-0.6614583 z"
         style="fill:#ffffff;stroke:none;stroke-width:0.529167;stroke-linejoin:round" />
      <path
         style="fill:#ffffff;stroke:none;stroke-width:0.529167;stroke-linejoin:round"
         d="M 2.9104166,1.8520833 V 3.175 l 0.79375,-0.6614583 z"
         id="path851"
         sodipodi:nodetypes="cccc" />
    </g>
  </g>
</svg>
