<?xml version="1.0" encoding="UTF-8" standalone="no"?>
<svg
   xmlns:dc="http://purl.org/dc/elements/1.1/"
   xmlns:cc="http://creativecommons.org/ns#"
   xmlns:rdf="http://www.w3.org/1999/02/22-rdf-syntax-ns#"
   xmlns:svg="http://www.w3.org/2000/svg"
   xmlns="http://www.w3.org/2000/svg"
   xmlns:xlink="http://www.w3.org/1999/xlink"
   xmlns:sodipodi="http://sodipodi.sourceforge.net/DTD/sodipodi-0.dtd"
   xmlns:inkscape="http://www.inkscape.org/namespaces/inkscape"
   id="svg1626"
   version="1.1"
   viewBox="0 0 186.53124 105.83333"
   height="400"
   width="705"
   sodipodi:docname="DMG.svg"
   inkscape:version="0.92.4 5da689c313, 2019-01-14">
  <sodipodi:namedview
     pagecolor="#ffffff"
     bordercolor="#666666"
     borderopacity="1"
     objecttolerance="10"
     gridtolerance="10"
     guidetolerance="10"
     inkscape:pageopacity="0"
     inkscape:pageshadow="2"
     inkscape:window-width="1440"
     inkscape:window-height="836"
     id="namedview28"
     showgrid="false"
     inkscape:zoom="0.49078014"
     inkscape:cx="-25.469655"
     inkscape:cy="200"
     inkscape:window-x="0"
     inkscape:window-y="35"
     inkscape:window-maximized="1"
     inkscape:current-layer="svg1626"
     showguides="false" />
  <defs
     id="defs1620">
    <linearGradient
       y2="-702.41351"
       x2="1866.6791"
       y1="-302.41351"
       x1="1866.6791"
       gradientTransform="matrix(0.26955376,0,0,0.26458332,-418.93484,80.013569)"
       gradientUnits="userSpaceOnUse"
       id="linearGradient1787"
       xlink:href="#linearGradient4244-6" />
    <linearGradient
       id="linearGradient4244-6">
      <stop
         style="stop-color:#e7e8e8;stop-opacity:1"
         offset="0"
         id="stop4428" />
      <stop
         style="stop-color:#c1c1c2;stop-opacity:1"
         offset="1"
         id="stop4430" />
    </linearGradient>
    <pattern
       patternTransform="matrix(0.25179513,0,0,0.24902942,74.877056,44.317711)"
       id="pattern1766-7"
       xlink:href="#pattern1789-1-7" />
    <pattern
       patternTransform="matrix(0.95333333,0,0,0.93976788,1808.4289,469.91355)"
       id="pattern1789-1-7"
       xlink:href="#pattern2162-9-0" />
    <pattern
       patternTransform="matrix(0.95981655,0,0,0.94124754,1752.5383,345.65888)"
       id="pattern2162-9-0"
       xlink:href="#pattern2157-9-1" />
    <pattern
       id="pattern2157-9-1"
       patternTransform="translate(264.6791,-428.75249)"
       height="345.83008"
       width="600"
       patternUnits="userSpaceOnUse">
      <path
         style="color:#000000;font-style:normal;font-variant:normal;font-weight:normal;font-stretch:normal;font-size:medium;line-height:normal;font-family:sans-serif;font-variant-ligatures:normal;font-variant-position:normal;font-variant-caps:normal;font-variant-numeric:normal;font-variant-alternates:normal;font-feature-settings:normal;text-indent:0;text-align:start;text-decoration:none;text-decoration-line:none;text-decoration-style:solid;text-decoration-color:#000000;letter-spacing:normal;word-spacing:normal;text-transform:none;writing-mode:lr-tb;direction:ltr;text-orientation:mixed;dominant-baseline:auto;baseline-shift:baseline;text-anchor:start;white-space:normal;shape-padding:0;clip-rule:nonzero;display:inline;overflow:visible;visibility:visible;opacity:1;isolation:auto;mix-blend-mode:normal;color-interpolation:sRGB;color-interpolation-filters:linearRGB;solid-color:#000000;solid-opacity:1;vector-effect:none;fill:#ffffff;fill-opacity:1;fill-rule:nonzero;stroke:none;stroke-width:2;stroke-linecap:butt;stroke-linejoin:miter;stroke-miterlimit:4;stroke-dasharray:none;stroke-dashoffset:0;stroke-opacity:1;filter:url(#filter5497);color-rendering:auto;image-rendering:auto;shape-rendering:auto;text-rendering:auto;enable-background:accumulate"
         d="m 0,0 v 17 4 27.16602 4.16602 16.83398 17 4 27.16602 4.16601 16.83399 17 4 27.16601 4.16602 16.83398 17 4 27.16602 4.16601 16.83399 17 4 27.16601 4.16602 16.83398 h 1 v -16.23437 l 27.0566,16.23437 h 3.8868 1.0234 L 59,329.59571 v 16.23437 h 1 1 v -16.23437 l 27.0566,16.23437 h 3.8868 L 119,329.59571 v 16.23437 h 1 1 v -16.23437 l 27.0566,16.23437 h 3.8868 L 179,329.59571 v 16.23437 h 1 1 v -16.23437 l 27.0566,16.23437 h 3.8868 L 239,329.59571 v 16.23437 h 1 1 v -16.23437 l 27.05664,16.23437 h 3.88672 L 299,329.59571 v 16.23437 h 1 1 v -16.23437 l 27.05664,16.23437 h 3.88672 L 359,329.59571 v 16.23437 h 1 1 v -16.23437 l 27.05664,16.23437 h 3.88672 L 419,329.59571 v 16.23437 h 1 1 v -16.23437 l 27.05664,16.23437 h 3.88672 L 479,329.59571 v 16.23437 h 1 1 v -16.23437 l 27.05664,16.23437 h 3.88672 L 539,329.59571 v 16.23437 h 1 1 v -16.23437 l 27.05664,16.23437 h 3.88672 L 599,329.59571 v 16.23437 h 1 v -16.83398 -4.16602 -27.16601 -4 -17 -16.83399 -4.16601 -27.16602 -4 -17 -16.83398 -4.16602 -27.16601 -4 -17 -16.83399 -4.16601 -27.16602 -4 -17 V 52.33204 48.16602 21 17 0 h -1 V 16.4004 L 571.94336,0.16602 571.66602,0 h -3.33204 L 568.05664,0.16602 541,16.4004 V 0 h -1 -1 V 16.4004 L 511.94336,0.16602 511.66602,0 h -3.33204 L 508.05664,0.16602 481,16.4004 V 0 h -1 -1 V 16.4004 L 451.94336,0.16602 451.66602,0 h -3.33204 L 448.05664,0.16602 421,16.4004 V 0 h -1 -1 V 16.4004 L 391.94336,0.16602 391.66602,0 h -3.33204 L 388.05664,0.16602 361,16.4004 V 0 h -1 -1 V 16.4004 L 331.94336,0.16602 331.66602,0 h -3.33204 L 328.05664,0.16602 301,16.4004 V 0 h -1 -1 V 16.4004 L 271.94336,0.16602 271.66602,0 h -3.33204 L 268.05664,0.16602 241,16.4004 V 0 h -1 -1 V 16.4004 L 211.9434,0.16602 211.666,0 h -3.332 L 208.0566,0.16602 181,16.4004 V 0 h -1 -1 V 16.4004 L 151.9434,0.16602 151.666,0 h -3.332 L 148.0566,0.16602 121,16.4004 V 0 h -1 -1 V 16.4004 L 91.9434,0.16602 91.666,0 H 88.334 L 88.0566,0.16602 61,16.4004 V 0 H 60 59 V 16.4004 L 31.9434,0.16602 31.666,0 H 28.334 L 28.0566,0.16602 1,16.4004 V 0 Z M 29,1.93164 V 33.07227 L 2.1016,18.07032 Z m 2,0 L 57.8984,18.07032 31,33.07227 Z m 58,0 V 33.07227 L 62.1016,18.07032 Z m 2,0 26.8984,16.13868 L 91,33.07227 Z m 58,0 V 33.07227 L 122.1016,18.07032 Z m 2,0 26.8984,16.13868 L 151,33.07227 Z m 58,0 V 33.07227 L 182.1016,18.07032 Z m 2,0 26.8984,16.13868 L 211,33.07227 Z m 58,0 V 33.07227 L 242.1016,18.07032 Z m 2,0 26.89844,16.13868 L 271,33.07227 Z m 58,0 V 33.07227 L 302.10156,18.07032 Z m 2,0 26.89844,16.13868 L 331,33.07227 Z m 58,0 V 33.07227 L 362.10156,18.07032 Z m 2,0 26.89844,16.13868 L 391,33.07227 Z m 58,0 V 33.07227 L 422.10156,18.07032 Z m 2,0 26.89844,16.13868 L 451,33.07227 Z m 58,0 V 33.07227 L 482.10156,18.07032 Z m 2,0 26.89844,16.13868 L 511,33.07227 Z m 58,0 V 33.07227 L 542.10156,18.07032 Z m 2,0 26.89844,16.13868 L 571,33.07227 Z M 1,19.75977 27.7031,34.66602 1,49.57227 V 48.16602 21 Z m 58,0 V 21 48.16602 49.57227 L 32.2969,34.66602 Z m 2,0 L 87.7031,34.66602 61,49.57227 V 48.16602 21 Z m 58,0 V 21 48.16602 49.57227 L 92.2969,34.66602 Z m 2,0 26.7031,14.90625 L 121,49.57227 V 48.16602 21 Z m 58,0 V 21 48.16602 49.57227 L 152.2969,34.66602 Z m 2,0 26.7031,14.90625 L 181,49.57227 V 48.16602 21 Z m 58,0 V 21 48.16602 49.57227 L 212.2969,34.66602 Z m 2,0 26.70312,14.90625 L 241,49.57227 V 48.16602 21 Z m 58,0 V 21 48.16602 49.57227 L 272.29688,34.66602 Z m 2,0 26.70312,14.90625 L 301,49.57227 V 48.16602 21 Z m 58,0 V 21 48.16602 49.57227 L 332.29688,34.66602 Z m 2,0 26.70312,14.90625 L 361,49.57227 V 48.16602 21 Z m 58,0 V 21 48.16602 49.57227 L 392.29688,34.66602 Z m 2,0 26.70312,14.90625 L 421,49.57227 V 48.16602 21 Z m 58,0 V 21 48.16602 49.57227 L 452.29688,34.66602 Z m 2,0 26.70312,14.90625 L 481,49.57227 V 48.16602 21 Z m 58,0 V 21 48.16602 49.57227 L 512.29688,34.66602 Z m 2,0 26.70312,14.90625 L 541,49.57227 V 48.16602 21 Z m 58,0 V 21 48.16602 49.57227 L 572.29688,34.66602 Z m -570,16.5 V 67.4004 L 2.1016,51.26172 Z m 2,0 L 57.8984,51.26172 31,67.4004 Z m 58,0 V 67.4004 L 62.1016,51.26172 Z m 2,0 26.8984,15.00195 L 91,67.4004 Z m 60,0 26.8984,15.00195 L 151,67.4004 Z m 58,0 V 67.4004 L 182.1016,51.26172 Z m 2,0 26.8984,15.00195 L 211,67.4004 Z m 58,0 V 67.4004 L 242.1016,51.26172 Z m 2,0 26.89844,15.00195 L 271,67.4004 Z m 60,0 26.89844,15.00195 L 331,67.4004 Z m 58,0 V 67.4004 L 362.10156,51.26172 Z m 2,0 26.89844,15.00195 L 391,67.4004 Z m 58,0 V 67.4004 L 422.10156,51.26172 Z m 2,0 26.89844,15.00195 L 451,67.4004 Z m 58,0 V 67.4004 L 482.10156,51.26172 Z m 2,0 26.89844,15.00195 L 511,67.4004 Z m 58,0 V 67.4004 L 542.10156,51.26172 Z m 2,0 26.89844,15.00195 L 571,67.4004 Z M 1,52.93164 28.0566,69.16602 H 28.334 L 28.0566,69.33204 1,85.56641 V 69.16602 Z m 58,0 V 69.16602 85.56641 L 31.9434,69.33204 31.666,69.16602 h 0.2774 z m 2,0 27.0566,16.23438 H 88.334 L 88.0566,69.33204 61,85.56641 V 69.16602 Z m 58,0 V 85.56641 L 91.9434,69.33204 91.666,69.16602 h 0.2774 z m 60,0 V 69.16602 85.56641 L 151.9434,69.33204 151.666,69.16602 h 0.2774 z m 2,0 27.0566,16.23438 h 0.2774 L 208.0566,69.33204 181,85.56641 V 69.16602 Z m 58,0 V 69.16602 85.56641 L 211.9434,69.33204 211.666,69.16602 h 0.2774 z m 2,0 27.05664,16.23438 h 0.27734 L 268.05664,69.33204 241,85.56641 V 69.16602 Z m 58,0 -0.125,32.56055 -26.93164,-16.16015 -0.27734,-0.16602 h 0.27734 z m 60,0 v 16.23438 16.40039 l -27.05664,-16.23437 -0.27734,-0.16602 h 0.27734 z m 2,0 27.05664,16.23438 h 0.27734 L 388.05664,69.33204 361,85.56641 V 69.16602 Z m 58,0 v 16.23438 16.40039 l -27.05664,-16.23437 -0.27734,-0.16602 h 0.27734 z m 2,0 27.05664,16.23438 h 0.27734 L 448.05664,69.33204 421,85.56641 V 69.16602 Z m 58,0 v 16.23438 16.40039 l -27.05664,-16.23437 -0.27734,-0.16602 h 0.27734 z m 2,0 27.05664,16.23438 h 0.27734 L 508.05664,69.33204 481,85.56641 V 69.16602 Z m 58,0 v 16.23438 16.04297 l -0.20115,0.23633 -26.85547,-16.11328 -0.27734,-0.16602 h 0.27734 z m 2,0 27.05664,16.23438 h 0.27734 L 568.05664,69.33204 541,85.56641 V 69.16602 Z m 58,0 v 16.23438 16.40039 l -27.05664,-16.23437 -0.27734,-0.16602 h 0.27734 z M 29,71.09766 v 31.14063 L 2.1016,87.23633 Z m 2,0 L 57.8984,87.23633 31,102.23829 Z m 58,0 v 31.14063 L 62.1016,87.23633 Z m 2,0 26.8984,16.13867 L 91,102.23829 Z m 58,0 v 31.14063 L 122.1016,87.23633 Z m 2,0 26.8984,16.13867 L 151,102.23829 Z m 58,0 v 31.14063 L 182.1016,87.23633 Z m 2,0 26.8984,16.13867 L 211,102.23829 Z m 58,0 v 31.14063 L 242.1016,87.23633 Z m 2,0 26.89844,16.13867 L 271,102.23829 Z m 58,0 v 31.14063 L 302.10156,87.23633 Z m 2,0 26.89844,16.13867 L 331,102.23829 Z m 58,0 v 31.14063 L 362.10156,87.23633 Z m 2,0 26.89844,16.13867 L 391,102.23829 Z m 58,0 v 31.14063 L 422.10156,87.23633 Z m 2,0 26.89844,16.13867 L 451,102.23829 Z m 58,0 v 31.14063 L 482.10156,87.23633 Z m 2,0 26.89844,16.13867 L 511,102.23829 Z m 58,0 v 31.14063 L 542.18359,87.1875 Z m 2,0 26.89844,16.13867 L 571,102.23829 Z M 1,88.92579 27.7031,103.83204 1,118.73829 v -1.40625 -27.16602 z m 58,0 v 1.24023 27.16602 1.40625 L 32.2969,103.83204 Z m 2,0 26.7031,14.90625 L 61,118.73829 v -1.40625 -27.16602 z m 58,0 v 1.24023 27.16602 1.40625 L 92.2969,103.83204 Z m 2,0 26.7031,14.90625 L 121,118.73829 v -1.40625 -27.16602 z m 58,0 v 1.24023 27.16602 1.40625 l -26.7031,-14.90625 z m 2,0 26.7031,14.90625 L 181,118.73829 v -1.40625 -27.16602 z m 58,0 v 1.24023 27.16602 1.40625 l -26.7031,-14.90625 z m 2,0 26.70312,14.90625 L 241,118.73829 v -1.40625 -27.16602 z m 58,0 v 1.24023 27.16602 1.40625 l -26.70312,-14.90625 z m 2,0 26.70312,14.90625 L 301,118.73829 v -1.40625 -27.16602 z m 58,0 v 1.24023 27.16602 1.40625 l -26.70312,-14.90625 z m 2,0 26.70312,14.90625 L 361,118.73829 v -1.40625 -27.16602 z m 58,0 v 1.24023 27.16602 1.40625 l -26.70312,-14.90625 z m 2,0 26.70312,14.90625 L 421,118.73829 v -1.40625 -27.16602 z m 58,0 v 1.24023 27.16602 1.40625 l -26.70312,-14.90625 z m 2,0 26.70312,14.90625 L 481,118.73829 v -1.40625 -27.16602 z m 118,0 v 1.24023 27.16602 1.40625 l -26.70312,-14.90625 z m -60.02734,0.0156 0.0273,29.7969 -26.70312,-14.90625 z M 29,105.42579 v 31.14062 L 2.1016,120.42774 Z m 2,0 26.8984,15.00195 L 31,136.56641 Z m 58,0 v 31.14062 L 62.1016,120.42774 Z m 2,0 26.8984,15.00195 L 91,136.56641 Z m 58,0 v 31.14062 l -26.8984,-16.13867 z m 2,0 26.8984,15.00195 L 151,136.56641 Z m 58,0 v 31.14062 l -26.8984,-16.13867 z m 2,0 26.8984,15.00195 L 211,136.56641 Z m 58,0 v 31.14062 l -26.8984,-16.13867 z m 2,0 26.89844,15.00195 L 271,136.56641 Z m 58,0 v 31.14062 l -26.89844,-16.13867 z m 2,0 26.89844,15.00195 L 331,136.56641 Z m 58,0 v 31.14062 l -26.89844,-16.13867 z m 2,0 26.89844,15.00195 L 391,136.56641 Z m 58,0 v 31.14062 l -26.89844,-16.13867 z m 2,0 26.89844,15.00195 L 451,136.56641 Z m 58,0 v 31.14062 l -26.89844,-16.13867 z m 2,0 26.89844,15.00195 L 511,136.56641 Z m 60,0 26.89844,15.00195 L 571,136.56641 Z M 1,122.09766 28.0566,138.33204 H 28.334 L 28.0566,138.49805 1,154.73243 v -16.40039 z m 58,0 v 16.23438 16.40039 L 31.9434,138.49805 31.666,138.33204 h 0.2774 z m 2,0 27.0566,16.23438 H 88.334 L 88.0566,138.49805 61,154.73243 v -16.40039 z m 58,0 v 16.23438 16.40039 L 91.9434,138.49805 91.666,138.33204 h 0.2774 z m 2,0 27.0566,16.23438 h 0.2774 l -0.2774,0.16601 L 121,154.73243 v -16.40039 z m 58,0 v 16.23438 16.40039 l -27.0566,-16.23438 -0.2774,-0.16601 h 0.2774 z m 2,0 27.0566,16.23438 h 0.2774 l -0.2774,0.16601 L 181,154.73243 v -16.40039 z m 58,0 v 16.23438 16.40039 l -27.0566,-16.23438 -0.2774,-0.16601 h 0.2774 z m 2,0 27.05664,16.23438 h 0.27734 l -0.27734,0.16601 L 241,154.73243 v -16.40039 z m 58,0 v 16.23438 16.40039 l -27.05664,-16.23438 -0.27734,-0.16601 h 0.27734 z m 2,0 27.05664,16.23438 h 0.27734 l -0.27734,0.16601 L 301,154.73243 v -16.40039 z m 58,0 v 16.23438 16.40039 l -27.05664,-16.23438 -0.27734,-0.16601 h 0.27734 z m 2,0 27.05664,16.23438 h 0.10742 L 361,154.73243 v -16.40039 z m 58,0 v 16.23438 16.40039 l -27.05664,-16.23438 -0.27734,-0.16601 h 0.27734 z m 2,0 27.05664,16.23438 h 0.27734 l -0.27734,0.16601 L 421,154.73243 v -16.40039 z m 58,0 v 16.23438 16.40039 l -27.05664,-16.23438 -0.27734,-0.16601 h 0.27734 z m 2,0 27.05664,16.23438 h 0.27734 l -0.27734,0.16601 L 481,154.73243 v -16.40039 z m 58,0 v 16.23438 16.40039 l -27.05664,-16.23438 -0.27734,-0.16601 h 0.27734 z m 2,0 26.54102,16.70898 L 541,154.73243 v -16.40039 z m 58,0 v 16.23438 16.40039 l -27.05664,-16.23438 -0.27734,-0.16601 h 0.27734 z M 29,140.26368 V 171.4043 L 2.1016,156.40235 Z m 2,0 26.8984,16.13867 L 31,171.4043 Z m 58,0 V 171.4043 L 62.1016,156.40235 Z m 2,0 26.8984,16.13867 L 91,171.4043 Z m 58,0 v 31.14062 l -26.8984,-15.00195 z m 2,0 26.8984,16.13867 L 151,171.4043 Z m 58,0 v 31.14062 l -26.8984,-15.00195 z m 2,0 26.8984,16.13867 L 211,171.4043 Z m 58,0 v 31.14062 l -26.8984,-15.00195 z m 2,0 26.89844,16.13867 L 271,171.4043 Z m 58,0 v 31.14062 l -26.89844,-15.00195 z m 2,0 26.89844,16.13867 L 331,171.4043 Z m 60,0 26.89844,16.13867 L 391,171.4043 Z m 58,0 v 31.14062 l -26.89844,-15.00195 z m 2,0 26.89844,16.13867 L 451,171.4043 Z m 58,0 v 31.14062 l -26.89844,-15.00195 z m 2,0 26.89844,16.13867 L 511,171.4043 Z m 58,0 v 31.14062 l -26.89844,-15.00195 z m 2,0 26.89844,16.13867 L 571,171.4043 Z M 1,158.0918 27.7031,172.99805 1,187.9043 v -1.40625 -27.16601 z m 58,0 v 1.24024 27.16601 1.40625 L 32.2969,172.99805 Z m 2,0 26.7031,14.90625 L 61,187.9043 v -1.40625 -27.16601 z m 58,0 v 1.24024 27.16601 1.40625 L 92.2969,172.99805 Z m 2,0 26.7031,14.90625 L 121,187.9043 v -1.40625 -27.16601 z m 58,0 v 1.24024 27.16601 1.40625 l -26.7031,-14.90625 z m 2,0 26.7031,14.90625 L 181,187.9043 v -1.40625 -27.16601 z m 58,0 v 1.24024 27.16601 1.40625 l -26.7031,-14.90625 z m 2,0 26.70312,14.90625 L 241,187.9043 v -1.40625 -27.16601 z m 58,0 v 1.24024 27.16601 1.40625 l -26.70312,-14.90625 z m 2,0 26.70312,14.90625 L 301,187.9043 v -1.40625 -27.16601 z m 58,0 v 29.8125 l -26.70312,-14.90625 z m 60,0 v 1.24024 27.16601 1.40625 l -26.70312,-14.90625 z m 2,0 26.70312,14.90625 L 421,187.9043 v -1.40625 -27.16601 z m 58,0 v 1.24024 27.16601 1.40625 l -26.70312,-14.90625 z m 2,0 26.70312,14.90625 L 481,187.9043 v -1.40625 -27.16601 z m 58,0 v 1.24024 27.16601 1.40625 l -26.70312,-14.90625 z m 2,0 26.70312,14.90625 L 541,187.9043 v -1.40625 -27.16601 z m 58,0 v 1.24024 27.16601 1.40625 l -26.70312,-14.90625 z m -570,16.5 v 31.14063 L 2.1016,189.59375 Z m 2,0 26.8984,15.00195 L 31,205.73243 Z m 58,0 v 31.14063 L 62.1016,189.59375 Z m 2,0 26.8984,15.00195 L 91,205.73243 Z m 58,0 v 31.14063 l -26.8984,-16.13868 z m 2,0 26.8984,15.00195 L 151,205.73243 Z m 58,0 v 31.14063 l -26.8984,-16.13868 z m 2,0 26.8984,15.00195 L 211,205.73243 Z m 58,0 v 31.14063 l -26.8984,-16.13868 z m 2,0 26.89844,15.00195 L 271,205.73243 Z m 58,0 v 31.14063 l -26.89844,-16.13868 z m 2,0 26.89844,15.00195 L 331,205.73243 Z m 58,0 v 31.14063 L 362.74023,189.97657 C 371.09219,184.1876 380.13821,179.53471 389,174.5918 Z m 2,0 26.89844,15.00195 L 391,205.73243 Z m 58,0 v 31.14063 l -26.89844,-16.13868 z m 2,0 26.89844,15.00195 L 451,205.73243 Z m 58,0 v 31.14063 l -26.89844,-16.13868 z m 2,0 26.89844,15.00195 L 511,205.73243 Z m 58,0 v 31.14063 l -26.89844,-16.13868 z m 2,0 26.89844,15.00195 L 571,205.73243 Z M 1,191.26368 28.0566,207.49805 H 28.334 L 28.0566,207.66407 1,223.89844 v -16.40039 z m 58,0 v 16.23437 16.40039 L 31.9434,207.66407 31.666,207.49805 h 0.2774 z m 2,0 27.0566,16.23437 H 88.334 L 88.0566,207.66407 61,223.89844 v -16.40039 z m 58,0 v 16.23437 16.40039 L 91.9434,207.66407 91.666,207.49805 h 0.2774 z m 2,0 27.0566,16.23437 h 0.2774 l -0.2774,0.16602 L 121,223.89844 v -16.40039 z m 58,0 v 16.23437 16.40039 l -27.0566,-16.23437 -0.2774,-0.16602 h 0.2774 z m 2,0 27.0566,16.23437 h 0.2774 l -0.2774,0.16602 L 181,223.89844 v -16.40039 z m 58,0 v 16.23437 16.40039 l -27.0566,-16.23437 -0.2774,-0.16602 h 0.2774 z m 2,0 27.05664,16.23437 h 0.27734 l -0.27734,0.16602 L 241,223.89844 v -16.40039 z m 58,0 v 16.23437 16.40039 l -27.05664,-16.23437 -0.27734,-0.16602 h 0.27734 z m 2,0 27.05664,16.23437 h 0.27734 l -0.27734,0.16602 L 301,223.89844 v -16.40039 z m 58,0 v 16.23437 16.40039 l -27.05664,-16.23437 -0.27734,-0.16602 h 0.27734 z m 2,0 27.05664,16.23437 h 0.27734 l -0.27734,0.16602 L 361,223.89844 v -16.40039 z m 58,0 v 16.23437 16.40039 l -27.05664,-16.23437 -0.27734,-0.16602 h 0.27734 z m 2,0 27.05664,16.23437 h 0.27734 l -0.27734,0.16602 L 421,223.89844 v -16.40039 z m 58,0 v 16.23437 16.40039 l -27.05664,-16.23437 -0.27734,-0.16602 h 0.27734 z m 2,0 27.05664,16.23437 h 0.27734 l -0.27734,0.16602 L 481,223.89844 v -16.40039 z m 58,0 v 16.23437 16.40039 l -27.05664,-16.23437 -0.27734,-0.16602 h 0.27734 z m 2,0 27.05664,16.23437 h 0.27734 l -0.27734,0.16602 L 541,223.89844 v -16.40039 z m 58,0 v 16.23437 16.40039 l -27.05664,-16.23437 -0.27734,-0.16602 h 0.27734 z M 29,209.42969 v 31.14063 L 2.1016,225.56836 Z m 2,0 26.8984,16.13867 L 31,240.57032 Z m 58,0 v 31.14063 L 62.1016,225.56836 Z m 2,0 26.8984,16.13867 L 91,240.57032 Z m 58,0 v 31.14063 l -26.8984,-15.00196 z m 60,0 v 31.14063 l -26.8984,-15.00196 z m 2,0 26.8984,16.13867 L 211,240.57032 Z m 58,0 v 31.14063 l -26.8984,-15.00196 z m 2,0 26.89844,16.13867 L 271,240.57032 Z m 58,0 v 31.14063 l -26.89844,-15.00196 z m 2,0 26.89844,16.13867 L 331,240.57032 Z m 58,0 v 31.14063 l -26.89844,-15.00196 z m 2,0 26.89844,16.13867 L 391,240.57032 Z m 58,0 v 31.14063 l -26.89844,-15.00196 z m 2,0 26.89844,16.13867 L 451,240.57032 Z m 58,0 v 31.14063 l -26.89844,-15.00196 z m 2,0 26.89844,16.13867 L 511,240.57032 Z m 58,0 v 31.14063 l -26.89844,-15.00196 z m 2,0 26.89844,16.13867 L 571,240.57032 Z M 1,227.25782 27.7031,242.16407 1,257.07032 v -1.40625 -27.16602 z m 58,0 v 1.24023 27.16602 1.40625 L 32.2969,242.16407 Z m 2,0 26.7031,14.90625 L 61,257.07032 v -1.40625 -27.16602 z m 58,0 v 1.24023 27.16602 1.40625 L 92.2969,242.16407 Z m 2,0 26.7031,14.90625 L 121,257.07032 v -1.40625 -27.16602 z m 60,0 26.7031,14.90625 L 181,257.07032 v -1.40625 -27.16602 z m 58,0 v 1.24023 27.16602 1.40625 l -26.7031,-14.90625 z m 2,0 26.70312,14.90625 L 241,257.07032 v -1.40625 -27.16602 z m 58,0 v 1.24023 27.16602 1.40625 l -26.70312,-14.90625 z m 2,0 26.70312,14.90625 L 301,257.07032 v -1.40625 -27.16602 z m 58,0 v 1.24023 27.16602 1.40625 l -26.70312,-14.90625 z m 2,0 26.70312,14.90625 L 361,257.07032 v -1.40625 -27.16602 z m 58,0 v 1.24023 27.16602 1.40625 l -26.70312,-14.90625 z m 2,0 26.70312,14.90625 L 421,257.07032 v -1.40625 -27.16602 z m 58,0 v 1.24023 27.16602 1.40625 l -26.70312,-14.90625 z m 2,0 26.70312,14.90625 L 481,257.07032 v -1.40625 -27.16602 z m 58,0 v 1.24023 27.16602 1.40625 l -26.70312,-14.90625 z m 2,0 26.70312,14.90625 L 541,257.07032 v -1.40625 -27.16602 z m 58,0 v 1.24023 27.16602 1.40625 l -26.70312,-14.90625 z m -570,16.5 v 31.14062 L 2.1016,258.75977 Z m 2,0 26.8984,15.00195 L 31,274.89844 Z m 58,0 v 31.14062 L 62.1016,258.75977 Z m 2,0 26.8984,15.00195 L 91,274.89844 Z m 58,0 v 31.14062 l -26.8984,-16.13867 z m 2,0 25.5938,15.78515 L 151,274.89844 Z m 58,0 v 31.14062 l -26.8984,-16.13867 z m 2,0 26.8984,15.00195 L 211,274.89844 Z m 58,0 v 31.14062 l -26.8984,-16.13867 z m 2,0 26.89844,15.00195 L 271,274.89844 Z m 58,0 v 31.14062 l -26.89844,-16.13867 z m 2,0 26.89844,15.00195 L 331,274.89844 Z m 58,0 v 31.14062 l -26.89844,-16.13867 z m 60,0 v 31.14062 l -26.89844,-16.13867 z m 2,0 26.89844,15.00195 L 451,274.89844 Z m 60,0 26.89844,15.00195 L 511,274.89844 Z m 58,0 v 31.14062 l -26.89844,-16.13867 z m 2,0 26.89844,15.00195 L 571,274.89844 Z M 1,260.42969 28.0566,276.66407 H 28.334 L 28.0566,276.83008 1,293.06446 v -16.40039 z m 58,0 v 16.23438 16.40039 L 31.9434,276.83008 31.666,276.66407 h 0.2774 z m 2,0 27.0566,16.23438 H 88.334 L 88.0566,276.83008 61,293.06446 v -16.40039 z m 58,0 v 16.23438 16.40039 L 91.9434,276.83008 91.666,276.66407 h 0.2774 z m 2,0 27.0566,16.23438 h 0.2774 l -0.2774,0.16601 L 121,293.06446 v -16.40039 z m 60,0 27.0566,16.23438 h 0.2774 l -0.2774,0.16601 L 181,293.06446 v -16.40039 z m 58,0 v 16.23438 16.40039 l -27.0566,-16.23438 -0.2774,-0.16601 h 0.2774 z m 2,0 27.05664,16.23438 h 0.27734 l -0.27734,0.16601 L 241,293.06446 v -16.40039 z m 58,0 v 16.23438 16.40039 l -27.05664,-16.23438 -0.27734,-0.16601 h 0.27734 z m 2,0 27.05664,16.23438 h 0.27734 l -0.27734,0.16601 L 301,293.06446 v -16.40039 z m 58,0 v 16.23438 16.40039 l -27.05664,-16.23438 -0.27734,-0.16601 h 0.27734 z m 2,0 27.05664,16.23438 h 0.27734 l -0.27734,0.16601 L 361,293.06446 v -16.40039 z m 60,0 27.05664,16.23438 h 0.27734 l -0.27734,0.16601 L 421,293.06446 Z m 58,0 v 32.63477 l -27.05664,-16.23438 -0.27734,-0.16601 h 0.27734 z m 60,0 v 16.23438 16.40039 l -27.05664,-16.23438 -0.27734,-0.16601 h 0.27734 z m 2,0 27.05664,16.23438 h 0.27734 l -0.27734,0.16601 L 541,293.06446 v -16.40039 z m 58,0 v 16.23438 16.40039 l -27.05664,-16.23438 -0.27734,-0.16601 h 0.27734 z m -420.5469,0.32813 0.5469,0.35742 v 15.54883 16.40039 l -27.0566,-16.23438 -0.2774,-0.16601 h 0.2774 z M 29,278.59571 v 31.14062 L 2.1016,294.73438 Z m 2,0 26.7051,16.02148 -3.5391,2.19922 L 31,309.73633 Z m 58,0 v 31.14062 L 62.1016,294.73438 Z m 2,0 26.8984,16.13867 L 91,309.73633 Z m 58,0 v 31.14062 l -26.8984,-15.00195 z m 2,0 26.8984,16.13867 L 151,309.73633 Z m 58,0 v 31.14062 l -26.8984,-15.00195 z m 2,0 26.8984,16.13867 L 211,309.73633 Z m 58,0 v 31.14062 l -26.8984,-15.00195 z m 2,0 26.89844,16.13867 L 271,309.73633 Z m 58,0 v 31.14062 l -26.89844,-15.00195 z m 2,0 26.89844,16.13867 L 331,309.73633 Z m 58,0 v 31.14062 l -26.89844,-15.00195 z m 2,0 26.89844,16.13867 L 391,309.73633 Z m 58,0 v 31.14062 l -26.89844,-15.00195 z m 2,0 26.89844,16.13867 L 451,309.73633 Z m 58,0 v 31.14062 l -26.89844,-15.00195 z m 2,0 26.89844,16.13867 L 511,309.73633 Z m 58,0 v 31.14062 l -26.89844,-15.00195 z m 2,0 26.89844,16.13867 L 571,309.73633 Z M 1,296.42383 27.7031,311.33008 1,326.23633 v -1.40625 -27.16601 z m 60,0 26.7031,14.90625 L 61,326.23633 v -1.40625 -27.16601 z m 58,0 v 1.24024 27.16601 1.40625 L 92.2969,311.33008 Z m 2,0 26.7031,14.90625 L 121,326.23633 v -1.40625 -27.16601 z m 58,0 v 1.24024 27.16601 1.40625 l -26.7031,-14.90625 z m 2,0 26.7031,14.90625 L 181,326.23633 v -1.40625 -27.16601 z m 58,0 v 1.24024 27.16601 1.40625 l -26.7031,-14.90625 z m 2,0 26.70312,14.90625 L 241,326.23633 v -1.40625 -27.16601 z m 58,0 v 1.24024 27.16601 1.40625 l -26.70312,-14.90625 z m 2,0 26.70312,14.90625 L 301,326.23633 v -1.40625 -27.16601 z m 58,0 v 1.24024 27.16601 1.40625 l -26.70312,-14.90625 z m 2,0 26.70312,14.90625 L 361,326.23633 v -1.40625 -27.16601 z m 58,0 v 1.24024 27.16601 1.40625 l -26.70312,-14.90625 z m 2,0 26.70312,14.90625 L 421,326.23633 v -1.40625 -27.16601 z m 58,0 v 1.24024 27.16601 1.40625 l -26.70312,-14.90625 z m 2,0 26.70312,14.90625 L 481,326.23633 v -1.40625 -27.16601 z m 58,0 v 1.24024 27.16601 1.40625 l -26.70312,-14.90625 z m 2,0 26.70312,14.90625 L 541,326.23633 v -1.40625 -27.16601 z m 58,0 v 1.24024 27.16601 1.40625 l -26.70312,-14.90625 z m -570,16.5 v 31.14063 L 2.1016,327.92579 Z m 60,0 v 31.14063 L 62.1016,327.92579 Z m 2,0 26.8984,15.00196 L 91,344.06446 Z m 58,0 v 31.14063 l -26.8984,-16.13867 z m 2,0 26.8984,15.00196 L 151,344.06446 Z m 58,0 v 31.14063 l -26.8984,-16.13867 z m 2,0 26.8984,15.00196 L 211,344.06446 Z m 58,0 v 31.14063 l -26.8984,-16.13867 z m 2,0 26.89844,15.00196 L 271,344.06446 Z m 58,0 v 31.14063 l -26.89844,-16.13867 z m 2,0 26.89844,15.00196 L 331,344.06446 Z m 58,0 v 31.14063 l -26.89844,-16.13867 z m 2,0 26.89844,15.00196 L 391,344.06446 Z m 58,0 v 31.14063 l -26.89844,-16.13867 z m 2,0 26.89844,15.00196 L 451,344.06446 Z m 58,0 v 31.14063 l -26.89844,-16.13867 z m 2,0 26.89844,15.00196 L 511,344.06446 Z m 58,0 v 31.14063 l -26.89844,-16.13867 z m 2,0 26.89844,15.00196 L 571,344.06446 Z"
         id="path1032-3-2" />
    </pattern>
  </defs>
  <metadata
     id="metadata1623">
    <rdf:RDF>
      <cc:Work
         rdf:about="">
        <dc:format>image/svg+xml</dc:format>
        <dc:type
           rdf:resource="http://purl.org/dc/dcmitype/StillImage" />
        <dc:title />
      </cc:Work>
    </rdf:RDF>
  </metadata>
  <rect
     y="-105.83333"
     x="-3.3889942e-06"
     height="105.83333"
     width="186.53123"
     id="rect1765-5"
     style="fill:url(#linearGradient1787);fill-opacity:1;stroke:none;stroke-width:0.26458329"
     transform="scale(1,-1)"
     rx="0"
     ry="0" />
  <rect
     style="opacity:0.3;fill:url(#pattern1766-7);fill-opacity:1;stroke:none;stroke-width:0.26458329"
     width="186.53123"
     height="105.83333"
     x="-3.3889942e-06"
     y="-1.6484278e-06"
     id="rect1767-2-7" />
  <path
     inkscape:connector-curvature="0"
     style="opacity:1;fill:#27ab5f;fill-opacity:1;stroke:none;stroke-width:0.52916664;stroke-linecap:round;stroke-linejoin:round;stroke-miterlimit:4;stroke-dasharray:none;stroke-opacity:1"
     d="m 74.810917,49.212503 6.746874,3.704172 -6.746874,3.704161 z"
     id="path1906" />
  <path
     inkscape:connector-curvature="0"
     id="path2506"
     d="m 89.892166,49.212503 6.746874,3.704172 -6.746874,3.704161 z"
     style="opacity:1;fill:#27ab5f;fill-opacity:1;stroke:none;stroke-width:0.52916664;stroke-linecap:round;stroke-linejoin:round;stroke-miterlimit:4;stroke-dasharray:none;stroke-opacity:1" />
  <path
     inkscape:connector-curvature="0"
     style="opacity:1;fill:#27ab5f;fill-opacity:1;stroke:none;stroke-width:0.52916664;stroke-linecap:round;stroke-linejoin:round;stroke-miterlimit:4;stroke-dasharray:none;stroke-opacity:1"
     d="m 104.97342,49.212503 6.74687,3.704172 -6.74687,3.704161 z"
     id="path2508" />
</svg>
