<?xml version="1.0" encoding="UTF-8" standalone="no"?>
<svg
   xmlns:dc="http://purl.org/dc/elements/1.1/"
   xmlns:cc="http://creativecommons.org/ns#"
   xmlns:rdf="http://www.w3.org/1999/02/22-rdf-syntax-ns#"
   xmlns:svg="http://www.w3.org/2000/svg"
   xmlns="http://www.w3.org/2000/svg"
   xmlns:sodipodi="http://sodipodi.sourceforge.net/DTD/sodipodi-0.dtd"
   xmlns:inkscape="http://www.inkscape.org/namespaces/inkscape"
   width="48"
   height="48"
   viewBox="0 0 12.7 12.7"
   version="1.1"
   id="svg1626"
   inkscape:version="1.0 (4035a4fb49, 2020-05-01)"
   sodipodi:docname="analysis.svg">
  <defs
     id="defs1620" />
  <sodipodi:namedview
     id="base"
     pagecolor="#121316"
     bordercolor="#666666"
     borderopacity="1.0"
     inkscape:pageopacity="0"
     inkscape:pageshadow="2"
     inkscape:zoom="14"
     inkscape:cx="16.72086"
     inkscape:cy="26.855862"
     inkscape:document-units="px"
     inkscape:current-layer="layer2"
     showgrid="true"
     units="px"
     inkscape:window-width="1440"
     inkscape:window-height="837"
     inkscape:window-x="0"
     inkscape:window-y="35"
     inkscape:window-maximized="1"
     inkscape:document-rotation="0">
    <inkscape:grid
       type="xygrid"
       id="grid2171"
       empspacing="20"
       dotted="false" />
  </sodipodi:namedview>
  <metadata
     id="metadata1623">
    <rdf:RDF>
      <cc:Work
         rdf:about="">
        <dc:format>image/svg+xml</dc:format>
        <dc:type
           rdf:resource="http://purl.org/dc/dcmitype/StillImage" />
        <dc:title />
      </cc:Work>
    </rdf:RDF>
  </metadata>
  <g
     inkscape:label="Background"
     inkscape:groupmode="layer"
     id="layer1"
     transform="translate(0,-291.70833)" />
  <g
     inkscape:groupmode="layer"
     id="layer2"
     inkscape:label="Icon">
    <path
       style="display:inline;fill:#ffffff;fill-opacity:1;fill-rule:nonzero;stroke:none;stroke-width:0.264583"
       d="m 1.0583333,1.8520827 c -0.26458335,0 -0.52916668,0.2645834 -0.52916668,0.5291667 v 7.9374996 c 0,0.264584 0.26458333,0.529167 0.52916668,0.529167 H 11.641666 c 0.264584,0 0.529167,-0.264583 0.529167,-0.529167 V 2.3812494 c 0,-0.2645833 -0.264583,-0.5291667 -0.529167,-0.5291667 z m 0.2232422,0.5291667 h 8.5080077 c 0.2645828,0 0.2645828,0.2645833 0.2645828,0.2645833 V 8.466666 c 0,0 0,0.2645833 -0.2645828,0.2645833 H 1.3229166 c -0.2645833,0 -0.2645833,-0.2645833 -0.2645833,-0.2645833 V 2.6458327 c 0,-0.1984375 0.1488281,-0.2521796 0.2232422,-0.2645833 z m 9.8309245,0 c 0.292251,0 0.529166,0.2369159 0.529166,0.5291667 0,0.2922508 -0.236915,0.5291666 -0.529166,0.5291666 -0.292251,0 -0.529167,-0.2369158 -0.529167,-0.5291666 0,-0.2922508 0.236916,-0.5291667 0.529167,-0.5291667 z m -7.4083334,0.79375 V 8.2020827 H 4.2333332 V 3.1749994 Z m 3.1749999,0 V 7.9374993 H 7.4083332 V 3.1749994 Z M 4.7624999,3.4395827 v 3.96875 h 0.5291667 v -3.96875 z m 3.175,0.2645834 V 7.1437493 H 8.4666665 V 3.7041661 Z M 2.6458333,3.9687494 V 6.879166 H 3.1749999 V 3.9687494 Z M 5.8208332,4.497916 V 6.6145827 H 6.3499999 V 4.497916 Z M 1.5874999,4.7624994 V 6.085416 H 2.1166666 V 4.7624994 Z M 8.9958332,5.0270827 V 6.085416 H 9.5249998 V 5.0270827 Z m 2.1166668,0.79375 c 0.292251,0 0.529166,0.2369158 0.529166,0.5291667 0,0.2922508 -0.236915,0.5291666 -0.529166,0.5291666 -0.292251,0 -0.529167,-0.2369158 -0.529167,-0.5291666 0,-0.2922509 0.236916,-0.5291667 0.529167,-0.5291667 z M 1.5874999,9.260416 c 0.2922508,0 0.5291667,0.2369158 0.5291667,0.5291666 0,0.2922504 -0.2369159,0.5291664 -0.5291667,0.5291664 -0.2922508,0 -0.5291666,-0.236916 -0.5291666,-0.5291664 0,-0.2922508 0.2369158,-0.5291666 0.5291666,-0.5291666 z m 9.5250001,0 c 0.292251,0 0.529166,0.2369158 0.529166,0.5291666 0,0.2922504 -0.236915,0.5291664 -0.529166,0.5291664 -0.292251,0 -0.529167,-0.236916 -0.529167,-0.5291664 0,-0.2922508 0.236916,-0.5291666 0.529167,-0.5291666 z"
       id="path5112"
       inkscape:connector-curvature="0"
       sodipodi:nodetypes="sssssssssccccsscscsssssccccccccccccccccccccccccccccccccccccccccsssssssssssssss" />
  </g>
</svg>
