<?xml version="1.0" encoding="UTF-8" standalone="no"?>
<svg
   xmlns:dc="http://purl.org/dc/elements/1.1/"
   xmlns:cc="http://creativecommons.org/ns#"
   xmlns:rdf="http://www.w3.org/1999/02/22-rdf-syntax-ns#"
   xmlns:svg="http://www.w3.org/2000/svg"
   xmlns="http://www.w3.org/2000/svg"
   xmlns:sodipodi="http://sodipodi.sourceforge.net/DTD/sodipodi-0.dtd"
   xmlns:inkscape="http://www.inkscape.org/namespaces/inkscape"
   width="48"
   height="48"
   viewBox="0 0 12.7 12.7"
   version="1.1"
   id="svg1626"
   inkscape:version="1.0 (4035a4fb49, 2020-05-01)"
   sodipodi:docname="setup_performance.svg">
  <defs
     id="defs1620" />
  <sodipodi:namedview
     id="base"
     pagecolor="#121316"
     bordercolor="#666666"
     borderopacity="1.0"
     inkscape:pageopacity="0"
     inkscape:pageshadow="2"
     inkscape:zoom="9.8994949"
     inkscape:cx="32.71256"
     inkscape:cy="23.744674"
     inkscape:document-units="px"
     inkscape:current-layer="layer2"
     showgrid="true"
     units="px"
     inkscape:window-width="1440"
     inkscape:window-height="837"
     inkscape:window-x="0"
     inkscape:window-y="35"
     inkscape:window-maximized="1"
     inkscape:document-rotation="0">
    <inkscape:grid
       type="xygrid"
       id="grid2171"
       empspacing="20"
       dotted="false" />
  </sodipodi:namedview>
  <metadata
     id="metadata1623">
    <rdf:RDF>
      <cc:Work
         rdf:about="">
        <dc:format>image/svg+xml</dc:format>
        <dc:type
           rdf:resource="http://purl.org/dc/dcmitype/StillImage" />
        <dc:title />
      </cc:Work>
    </rdf:RDF>
  </metadata>
  <g
     inkscape:label="Background"
     inkscape:groupmode="layer"
     id="layer1"
     transform="translate(0,-291.70833)" />
  <g
     inkscape:groupmode="layer"
     id="layer2"
     inkscape:label="Icon">
    <path
       inkscape:export-ydpi="90"
       inkscape:export-xdpi="90"
       inkscape:export-filename="/home/rene/Icons2.png"
       id="path5018"
       d="m 6.3500002,0.26458325 c -3.3608831,0 -6.0854167,2.72453365 -6.0854167,6.08541675 0,3.360883 2.7245336,6.085417 6.0854167,6.085417 3.3608833,0 6.0854168,-2.724534 6.0854168,-6.0854171 0,-3.3608831 -2.7245335,-6.08541665 -6.0854168,-6.08541665 z M 6.0854168,1.6040364 V 2.9104166 H 6.6145835 V 1.6040364 c 1.115663,0.061389 2.121072,0.5077116 2.902148,1.2071615 l -0.917773,0.9177733 0.37207,0.3720704 0.917774,-0.9177734 C 10.588253,3.9643447 11.034576,4.9697534 11.095964,6.0854166 H 9.7895835 v 0.5291667 h 1.3063805 c -0.06139,1.1156633 -0.507711,2.121072 -1.2071615,2.9021484 l -0.917774,-0.9177734 -0.37207,0.3720703 0.917773,0.9177735 c -0.842687,0.7546209 -1.946518,1.2236989 -3.1667313,1.2236989 -1.2202134,0 -2.3240445,-0.469078 -3.1667318,-1.2236989 L 4.1010418,8.9710286 3.7289715,8.5989583 2.8111981,9.5167317 C 2.1117482,8.7356553 1.6654253,7.7302466 1.6040366,6.6145833 H 2.9104168 V 6.0854166 H 1.6040366 C 1.6654253,4.9697534 2.1117482,3.9643447 2.8111981,3.1832682 L 3.7289715,4.1010416 4.1010418,3.7289713 3.1832684,2.8111979 C 3.9643449,2.111748 4.9697536,1.6654251 6.0854168,1.6040364 Z M 8.2186205,4.4813802 5.9779299,5.9779297 c -0.2066529,0.2066528 -0.2066529,0.5374878 0,0.7441406 0.2066528,0.2066528 0.5374878,0.2066528 0.7441406,0 z"
       style="display:inline;fill:#ffffff;fill-opacity:1;stroke:none;stroke-width:0.264583"
       inkscape:connector-curvature="0" />
  </g>
</svg>
