<?xml version="1.0" encoding="UTF-8" standalone="no"?>
<svg
   xmlns:dc="http://purl.org/dc/elements/1.1/"
   xmlns:cc="http://creativecommons.org/ns#"
   xmlns:rdf="http://www.w3.org/1999/02/22-rdf-syntax-ns#"
   xmlns:svg="http://www.w3.org/2000/svg"
   xmlns="http://www.w3.org/2000/svg"
   xmlns:sodipodi="http://sodipodi.sourceforge.net/DTD/sodipodi-0.dtd"
   xmlns:inkscape="http://www.inkscape.org/namespaces/inkscape"
   width="48"
   height="48"
   viewBox="0 0 12.7 12.7"
   version="1.1"
   id="svg1626"
   inkscape:version="1.0 (4035a4fb49, 2020-05-01)"
   sodipodi:docname="setup_midi.svg">
  <defs
     id="defs1620" />
  <sodipodi:namedview
     id="base"
     pagecolor="#121316"
     bordercolor="#666666"
     borderopacity="1.0"
     inkscape:pageopacity="0"
     inkscape:pageshadow="2"
     inkscape:zoom="14"
     inkscape:cx="16.72086"
     inkscape:cy="26.855862"
     inkscape:document-units="px"
     inkscape:current-layer="layer2"
     showgrid="true"
     units="px"
     inkscape:window-width="1440"
     inkscape:window-height="837"
     inkscape:window-x="0"
     inkscape:window-y="35"
     inkscape:window-maximized="1"
     inkscape:document-rotation="0">
    <inkscape:grid
       type="xygrid"
       id="grid2171"
       empspacing="20"
       dotted="false" />
  </sodipodi:namedview>
  <metadata
     id="metadata1623">
    <rdf:RDF>
      <cc:Work
         rdf:about="">
        <dc:format>image/svg+xml</dc:format>
        <dc:type
           rdf:resource="http://purl.org/dc/dcmitype/StillImage" />
        <dc:title />
      </cc:Work>
    </rdf:RDF>
  </metadata>
  <g
     inkscape:label="Background"
     inkscape:groupmode="layer"
     id="layer1"
     transform="translate(0,-291.70833)" />
  <g
     inkscape:groupmode="layer"
     id="layer2"
     inkscape:label="Icon">
    <g
       transform="matrix(0.26458333,0,0,0.26458333,20.6375,-25.664567)"
       id="g4987">
      <path
         style="fill:#ffffff;fill-opacity:1;stroke:none"
         d="m 169,377 c -1.66199,0 -3,1.33801 -3,3 v 28 h 4 v -18 h 36 v 18 h 4 v -28 c 0,-1.66199 -1.33801,-3 -3,-3 z m 2,4 h 2 v 5 h -2 z m 5,0 h 2 v 5 h -2 z m 5,0 h 2 v 5 h -2 z m 7.5,0 c 1.38071,0 2.5,1.11929 2.5,2.5 0,1.38071 -1.11929,2.5 -2.5,2.5 -1.38071,0 -2.5,-1.11929 -2.5,-2.5 0,-1.38071 1.11929,-2.5 2.5,-2.5 z m 7,0 c 1.38071,0 2.5,1.11929 2.5,2.5 0,1.38071 -1.11929,2.5 -2.5,2.5 -1.38071,0 -2.5,-1.11929 -2.5,-2.5 0,-1.38071 1.11929,-2.5 2.5,-2.5 z m 7,0 c 1.38071,0 2.5,1.11929 2.5,2.5 0,1.38071 -1.11929,2.5 -2.5,2.5 -1.38071,0 -2.5,-1.11929 -2.5,-2.5 0,-1.38071 1.11929,-2.5 2.5,-2.5 z M 171,391 v 17 h 4 v -7 h -1 v -10 z m 6,0 v 10 h -1 v 7 h 4 v -7 h -1 v -10 z m 5,0 v 10 h -1 v 7 h 4 v -17 z m 4,0 v 17 h 4 v -7 h -1 v -10 z m 6,0 v 10 h -1 v 7 h 4 v -7 h -1 v -10 z m 5,0 v 10 h -1 v 7 h 4 v -7 h -1 v -10 z m 5,0 v 10 h -1 v 7 h 4 v -17 z"
         transform="translate(-242,-271.00005)"
         id="rect4923"
         inkscape:connector-curvature="0" />
    </g>
  </g>
</svg>
