<?xml version="1.0" encoding="UTF-8" standalone="no"?>
<svg
   xmlns:dc="http://purl.org/dc/elements/1.1/"
   xmlns:cc="http://creativecommons.org/ns#"
   xmlns:rdf="http://www.w3.org/1999/02/22-rdf-syntax-ns#"
   xmlns:svg="http://www.w3.org/2000/svg"
   xmlns="http://www.w3.org/2000/svg"
   xmlns:sodipodi="http://sodipodi.sourceforge.net/DTD/sodipodi-0.dtd"
   xmlns:inkscape="http://www.inkscape.org/namespaces/inkscape"
   width="48"
   height="48"
   viewBox="0 0 12.7 12.7"
   version="1.1"
   id="svg1626"
   inkscape:version="1.0 (4035a4fb49, 2020-05-01)"
   sodipodi:docname="setup_audio.svg">
  <defs
     id="defs1620" />
  <sodipodi:namedview
     id="base"
     pagecolor="#121316"
     bordercolor="#666666"
     borderopacity="1.0"
     inkscape:pageopacity="0"
     inkscape:pageshadow="2"
     inkscape:zoom="7"
     inkscape:cx="-5.7641294"
     inkscape:cy="38.732328"
     inkscape:document-units="px"
     inkscape:current-layer="layer2"
     showgrid="true"
     units="px"
     inkscape:window-width="1440"
     inkscape:window-height="837"
     inkscape:window-x="0"
     inkscape:window-y="35"
     inkscape:window-maximized="1"
     inkscape:document-rotation="0">
    <inkscape:grid
       type="xygrid"
       id="grid2171"
       empspacing="20"
       dotted="false" />
  </sodipodi:namedview>
  <metadata
     id="metadata1623">
    <rdf:RDF>
      <cc:Work
         rdf:about="">
        <dc:format>image/svg+xml</dc:format>
        <dc:type
           rdf:resource="http://purl.org/dc/dcmitype/StillImage" />
        <dc:title />
      </cc:Work>
    </rdf:RDF>
  </metadata>
  <g
     inkscape:label="Background"
     inkscape:groupmode="layer"
     id="layer1"
     transform="translate(0,-291.70833)" />
  <g
     inkscape:groupmode="layer"
     id="layer2"
     inkscape:label="Icon">
    <path
       inkscape:export-ydpi="90"
       inkscape:export-xdpi="90"
       inkscape:export-filename="/home/rene/Icons2.png"
       style="display:inline;fill:#ffffff;fill-opacity:1;stroke:none;stroke-width:0.264583"
       d="M 6.6145835,2.1166667 2.6458334,4.4976548 V 8.2018213 L 6.6145835,10.583333 Z M 10.153386,2.6623698 9.5994143,3.2328776 C 10.520601,3.9589155 11.1125,5.0853949 11.1125,6.35 c 0,1.2637241 -0.593005,2.3827663 -1.5130857,3.1088543 L 10.153386,10.03763 C 11.223088,9.1649923 11.90625,7.8383395 11.90625,6.35 c 0,-1.4883368 -0.683162,-2.8149894 -1.752864,-3.6876302 z M 9.0454429,3.8116537 8.4914716,4.3904297 C 9.1148405,4.8189886 9.5250002,5.5358295 9.5250002,6.35 c 0,0.8141732 -0.4101597,1.5310141 -1.0335286,1.9595703 l 0.5539713,0.578776 C 9.8178779,8.3080043 10.31875,7.3892305 10.31875,6.35 10.31875,5.3107723 9.8178779,4.3919961 9.0454429,3.8116537 Z M 0.79375015,4.4976548 V 8.2018213 H 2.1166668 V 4.4976548 Z M 7.929232,4.977474 7.3504559,5.589323 C 7.6876092,5.680088 7.9375002,5.984158 7.9375002,6.35 c 0,0.3658447 -0.249891,0.6699118 -0.5870443,0.7606771 L 7.929232,7.7225261 C 8.408485,7.4510239 8.7312501,6.940804 8.7312501,6.35 8.7312501,5.759196 8.408485,5.2489762 7.929232,4.977474 Z"
       id="rect5182"
       inkscape:connector-curvature="0"
       sodipodi:nodetypes="cccccccsccscccsccsccccccccsccsc" />
  </g>
</svg>
