<?xml version="1.0" encoding="UTF-8" standalone="no"?>
<svg
   xmlns:dc="http://purl.org/dc/elements/1.1/"
   xmlns:cc="http://creativecommons.org/ns#"
   xmlns:rdf="http://www.w3.org/1999/02/22-rdf-syntax-ns#"
   xmlns:svg="http://www.w3.org/2000/svg"
   xmlns="http://www.w3.org/2000/svg"
   xmlns:sodipodi="http://sodipodi.sourceforge.net/DTD/sodipodi-0.dtd"
   xmlns:inkscape="http://www.inkscape.org/namespaces/inkscape"
   width="48"
   height="48"
   viewBox="0 0 12.7 12.7"
   version="1.1"
   id="svg1626"
   inkscape:version="1.0 (4035a4fb49, 2020-05-01)"
   sodipodi:docname="setup_general.svg">
  <defs
     id="defs1620" />
  <sodipodi:namedview
     id="base"
     pagecolor="#121316"
     bordercolor="#666666"
     borderopacity="1.0"
     inkscape:pageopacity="0"
     inkscape:pageshadow="2"
     inkscape:zoom="14"
     inkscape:cx="16.72086"
     inkscape:cy="26.855862"
     inkscape:document-units="px"
     inkscape:current-layer="layer2"
     showgrid="true"
     units="px"
     inkscape:window-width="1440"
     inkscape:window-height="837"
     inkscape:window-x="0"
     inkscape:window-y="35"
     inkscape:window-maximized="1"
     inkscape:document-rotation="0">
    <inkscape:grid
       type="xygrid"
       id="grid2171"
       empspacing="20"
       dotted="false" />
  </sodipodi:namedview>
  <metadata
     id="metadata1623">
    <rdf:RDF>
      <cc:Work
         rdf:about="">
        <dc:format>image/svg+xml</dc:format>
        <dc:type
           rdf:resource="http://purl.org/dc/dcmitype/StillImage" />
        <dc:title />
      </cc:Work>
    </rdf:RDF>
  </metadata>
  <g
     inkscape:label="Background"
     inkscape:groupmode="layer"
     id="layer1"
     transform="translate(0,-291.70833)" />
  <g
     inkscape:groupmode="layer"
     id="layer2"
     inkscape:label="Icon">
    <path
       style="fill:#ffffff;fill-opacity:1;stroke:none;stroke-width:0.264583"
       d="M 5.5562496,0.2645718 5.2916662,2.1166551 V 2.257215 C 4.9045358,2.3573175 4.5361009,2.5051269 4.20026,2.7036994 L 4.1010413,2.6044806 2.6044918,1.4882697 1.4882809,2.6044806 2.6044918,4.1010301 2.7037105,4.2002488 C 2.5051381,4.5360897 2.3573286,4.904522 2.2572262,5.2916551 H 2.1166663 L 0.26458297,5.5562384 v 1.5875 L 2.1166663,7.4083217 H 2.2572262 C 2.3573286,7.7954547 2.5051381,8.163887 2.7037105,8.4997279 L 2.6044918,8.5989467 1.4882809,10.095496 2.6044918,11.211707 4.1010413,10.095496 4.20026,9.9962774 C 4.5361009,10.19485 4.9045358,10.342659 5.2916662,10.442762 v 0.14056 l 0.2645834,1.852083 h 1.5874999 l 0.2645834,-1.852083 v 0 C 7.7954633,10.483219 8.1638982,10.19485 8.4997391,9.9962774 l 0.099219,0.099219 1.4965489,1.116211 1.116211,-1.116211 -1.116211,-1.4965489 -0.099218,-0.099219 C 10.194861,8.163887 10.342673,7.7954547 10.442773,7.4083217 h 0.14056 l 1.852083,-0.2645833 v -1.5875 L 10.583333,5.2916551 h -0.14056 C 10.342673,4.904522 10.194861,4.5360897 9.9962886,4.2002488 L 10.095507,4.1010301 11.211718,2.6044806 10.095507,1.4882697 8.5989579,2.6044806 8.4997391,2.7036994 C 8.1638982,2.5051269 7.7954633,2.3573175 7.4083329,2.257215 V 2.1166551 L 7.1437495,0.2645718 Z m 0.79375,3.9687499 c 1.1690032,0 2.1166666,0.9476634 2.1166666,2.1166667 0,1.1690032 -0.9476634,2.1166666 -2.1166666,2.1166666 -1.1690033,0 -2.1166667,-0.9476634 -2.1166667,-2.1166666 0,-1.1690033 0.9476634,-2.1166667 2.1166667,-2.1166667 z"
       id="path5055"
       inkscape:connector-curvature="0"
       sodipodi:nodetypes="cccccccccccccccccccccccccccccccccccccccccccccccccsssss" />
  </g>
</svg>
