<?xml version="1.0" encoding="UTF-8" standalone="no"?>
<svg
   xmlns:dc="http://purl.org/dc/elements/1.1/"
   xmlns:cc="http://creativecommons.org/ns#"
   xmlns:rdf="http://www.w3.org/1999/02/22-rdf-syntax-ns#"
   xmlns:svg="http://www.w3.org/2000/svg"
   xmlns="http://www.w3.org/2000/svg"
   xmlns:sodipodi="http://sodipodi.sourceforge.net/DTD/sodipodi-0.dtd"
   xmlns:inkscape="http://www.inkscape.org/namespaces/inkscape"
   width="48"
   height="48"
   viewBox="0 0 12.7 12.7"
   version="1.1"
   id="svg1626"
   inkscape:version="1.0 (4035a4fb49, 2020-05-01)"
   sodipodi:docname="uhoh.svg">
  <defs
     id="defs1620" />
  <sodipodi:namedview
     id="base"
     pagecolor="#121316"
     bordercolor="#666666"
     borderopacity="1.0"
     inkscape:pageopacity="0"
     inkscape:pageshadow="2"
     inkscape:zoom="4.9497475"
     inkscape:cx="-24.661079"
     inkscape:cy="48.799273"
     inkscape:document-units="px"
     inkscape:current-layer="layer2"
     showgrid="true"
     units="px"
     inkscape:window-width="1440"
     inkscape:window-height="837"
     inkscape:window-x="0"
     inkscape:window-y="35"
     inkscape:window-maximized="1"
     inkscape:document-rotation="0">
    <inkscape:grid
       type="xygrid"
       id="grid2171"
       empspacing="20"
       dotted="false" />
  </sodipodi:namedview>
  <metadata
     id="metadata1623">
    <rdf:RDF>
      <cc:Work
         rdf:about="">
        <dc:format>image/svg+xml</dc:format>
        <dc:type
           rdf:resource="http://purl.org/dc/dcmitype/StillImage" />
        <dc:title />
      </cc:Work>
    </rdf:RDF>
  </metadata>
  <g
     inkscape:label="Background"
     inkscape:groupmode="layer"
     id="layer1"
     transform="translate(0,-291.70833)" />
  <g
     inkscape:groupmode="layer"
     id="layer2"
     inkscape:label="Icon">
    <path
       inkscape:export-ydpi="90"
       inkscape:export-xdpi="90"
       inkscape:export-filename="/home/rene/Icons2.png"
       sodipodi:nodetypes="sssssssccssccsccccc"
       inkscape:connector-curvature="0"
       id="path4841"
       d="M 6.35,-8.5e-8 C 2.8429929,-8.5e-8 0,2.8429928 0,6.3499999 0,9.8570071 2.8429929,12.7 6.35,12.7 9.857007,12.7 12.7,9.8570071 12.7,6.3499999 12.7,2.8429928 9.857007,-8.5e-8 6.35,-8.5e-8 Z m 0,1.587499985 c 1.8566527,0 2.910417,1.0537613 2.910417,2.9104167 0,2.2411743 -2.3812503,2.7661049 -2.3812503,4.4979166 H 5.8208333 c 0,-2.3090849 2.38125,-2.8170372 2.38125,-4.4979166 0,-1.2377711 -0.6143122,-1.8520834 -1.8520833,-1.8520834 -1.2377711,0 -1.8520833,0.6143123 -1.8520833,1.8520834 H 3.4395833 c 0,-1.8566554 1.053764,-2.9104167 2.9104167,-2.9104167 z M 5.8208333,10.054167 H 6.8791667 V 11.1125 H 5.8208333 Z"
       style="display:inline;fill:#ffffff;stroke:none;stroke-width:0.264583" />
  </g>
</svg>
