<?xml version="1.0" encoding="UTF-8" standalone="no"?>
<svg
   xmlns:dc="http://purl.org/dc/elements/1.1/"
   xmlns:cc="http://creativecommons.org/ns#"
   xmlns:rdf="http://www.w3.org/1999/02/22-rdf-syntax-ns#"
   xmlns:svg="http://www.w3.org/2000/svg"
   xmlns="http://www.w3.org/2000/svg"
   xmlns:sodipodi="http://sodipodi.sourceforge.net/DTD/sodipodi-0.dtd"
   xmlns:inkscape="http://www.inkscape.org/namespaces/inkscape"
   sodipodi:docname="dont_know.svg"
   inkscape:version="1.0 (4035a4fb49, 2020-05-01)"
   id="svg1626"
   version="1.1"
   viewBox="0 0 4.2333332 4.2333332"
   height="16"
   width="16">
  <defs
     id="defs1620">
    <inkscape:path-effect
       hide_knots="false"
       only_selected="false"
       apply_with_radius="true"
       apply_no_radius="true"
       use_knot_distance="true"
       flexible="false"
       chamfer_steps="1"
       radius="0"
       mode="F"
       method="auto"
       unit="px"
       satellites_param="F,0,0,1,0,0,0,1 @ F,0,0,1,0,0.36691112,0,1 @ F,0,0,1,0,0.29591606,0,1 @ F,0,0,1,0,0.29591606,0,1 @ F,0,0,1,0,0.49783404,0,1 @ F,0,0,1,0,0,0,1"
       lpeversion="1"
       is_visible="true"
       id="path-effect856"
       effect="fillet_chamfer" />
  </defs>
  <sodipodi:namedview
     inkscape:document-rotation="0"
     inkscape:window-maximized="1"
     inkscape:window-y="35"
     inkscape:window-x="0"
     inkscape:window-height="837"
     inkscape:window-width="1440"
     units="px"
     showgrid="false"
     inkscape:current-layer="layer2"
     inkscape:document-units="px"
     inkscape:cy="6.7145008"
     inkscape:cx="7.3721718"
     inkscape:zoom="45.254834"
     inkscape:pageshadow="2"
     inkscape:pageopacity="0"
     borderopacity="1.0"
     bordercolor="#666666"
     pagecolor="#121316"
     id="base">
    <inkscape:grid
       dotted="false"
       empspacing="20"
       id="grid2171"
       type="xygrid" />
  </sodipodi:namedview>
  <metadata
     id="metadata1623">
    <rdf:RDF>
      <cc:Work
         rdf:about="">
        <dc:format>image/svg+xml</dc:format>
        <dc:type
           rdf:resource="http://purl.org/dc/dcmitype/StillImage" />
        <dc:title />
      </cc:Work>
    </rdf:RDF>
  </metadata>
  <g
     transform="translate(0,-291.70833)"
     id="layer1"
     inkscape:groupmode="layer"
     inkscape:label="Background" />
  <g
     inkscape:label="Icon"
     id="layer2"
     inkscape:groupmode="layer">
    <path
       transform="scale(0.26458333)"
       d="M 8 0 A 8.0000002 8.0000002 0 0 0 0 8 A 8.0000002 8.0000002 0 0 0 8 16 A 8.0000002 8.0000002 0 0 0 16 8 A 8.0000002 8.0000002 0 0 0 8 0 z M 7.8847656 2.9960938 C 8.9466307 2.9958652 9.9194469 3.6050286 10.394531 4.5546875 C 10.86358 5.4927848 10.790767 6.6117002 10.208984 7.484375 L 9.6035156 8.4003906 C 9.2835628 8.8803208 9.0904267 9.4304567 9.0273438 10 L 7.0273438 10 C 7.0947211 9.0354417 7.3965336 8.1014885 7.9355469 7.2929688 L 8.5488281 6.3789062 C 8.7343124 6.1006812 8.7569627 5.7463472 8.6074219 5.4472656 C 8.4693769 5.1713238 8.1933111 4.9979807 7.8847656 4.9980469 C 7.3860396 4.9980469 6.9980469 5.3840864 6.9980469 5.8828125 L 6.9980469 6.0019531 L 4.9980469 6.0019531 L 4.9980469 5.8828125 C 4.9980469 4.3032054 6.3051585 2.9960937 7.8847656 2.9960938 z M 7 11 L 9 11 L 9 13 L 7 13 L 7 11 z "
       style="fill:#ffffff;stroke-width:0.999999;stroke-linecap:round;stroke-linejoin:round"
       id="path23" />
  </g>
</svg>
