<?xml version="1.0" encoding="UTF-8" standalone="no"?>
<svg
   xmlns:dc="http://purl.org/dc/elements/1.1/"
   xmlns:cc="http://creativecommons.org/ns#"
   xmlns:rdf="http://www.w3.org/1999/02/22-rdf-syntax-ns#"
   xmlns:svg="http://www.w3.org/2000/svg"
   xmlns="http://www.w3.org/2000/svg"
   xmlns:sodipodi="http://sodipodi.sourceforge.net/DTD/sodipodi-0.dtd"
   xmlns:inkscape="http://www.inkscape.org/namespaces/inkscape"
   sodipodi:docname="midi_file.svg"
   inkscape:version="1.0 (4035a4fb49, 2020-05-01)"
   id="svg1626"
   version="1.1"
   viewBox="0 0 4.2333332 4.2333332"
   height="16"
   width="16">
  <defs
     id="defs1620" />
  <sodipodi:namedview
     inkscape:document-rotation="0"
     inkscape:window-maximized="1"
     inkscape:window-y="35"
     inkscape:window-x="0"
     inkscape:window-height="837"
     inkscape:window-width="1440"
     units="px"
     showgrid="true"
     inkscape:current-layer="layer2"
     inkscape:document-units="px"
     inkscape:cy="7.1428326"
     inkscape:cx="10.374999"
     inkscape:zoom="28"
     inkscape:pageshadow="2"
     inkscape:pageopacity="0"
     borderopacity="1.0"
     bordercolor="#666666"
     pagecolor="#121316"
     id="base">
    <inkscape:grid
       dotted="false"
       empspacing="20"
       id="grid2171"
       type="xygrid" />
  </sodipodi:namedview>
  <metadata
     id="metadata1623">
    <rdf:RDF>
      <cc:Work
         rdf:about="">
        <dc:format>image/svg+xml</dc:format>
        <dc:type
           rdf:resource="http://purl.org/dc/dcmitype/StillImage" />
        <dc:title />
      </cc:Work>
    </rdf:RDF>
  </metadata>
  <g
     transform="translate(0,-291.70833)"
     id="layer1"
     inkscape:groupmode="layer"
     inkscape:label="Background" />
  <g
     inkscape:label="Icon"
     id="layer2"
     inkscape:groupmode="layer">
    <path
       style="display:inline;fill:#ffffff;fill-opacity:1;stroke:none;stroke-width:0.264583"
       d="M 0.79375011,0.26458208 V 3.9687487 H 3.4395834 V 1.3229154 H 2.3812501 V 0.26458208 Z m 1.85208329,0 V 1.0583321 h 0.79375 z M 3.1750001,1.5875014 v 1.322914 0.264586 c 0,0.2645833 0,0.2645833 -0.2645833,0.2645833 H 2.6458334 c -0.2645833,0 -0.2645833,0.00106 -0.2645833,-0.2645833 0,-0.2645834 0,-0.2645834 0.2645833,-0.2645834 l 0.2645834,-2.6e-6 V 2.116668 L 1.8520834,2.3288057 v 0.846193 0.264586 c 0,0.2645833 0,0.2645833 -0.2645833,0.2645833 H 1.3229168 c -0.2645834,0 -0.2645834,0 -0.2645834,-0.2645833 0,-0.2645833 0,-0.2645833 0.2645834,-0.2645833 l 0.2645833,-2.7e-6 v -1.322914 z"
       id="path5422"
       inkscape:connector-curvature="0"
       sodipodi:nodetypes="cccccccccccccccccccccccccccccc" />
  </g>
</svg>
