<?xml version="1.0" encoding="UTF-8" standalone="no"?>
<svg
   xmlns:dc="http://purl.org/dc/elements/1.1/"
   xmlns:cc="http://creativecommons.org/ns#"
   xmlns:rdf="http://www.w3.org/1999/02/22-rdf-syntax-ns#"
   xmlns:svg="http://www.w3.org/2000/svg"
   xmlns="http://www.w3.org/2000/svg"
   xmlns:sodipodi="http://sodipodi.sourceforge.net/DTD/sodipodi-0.dtd"
   xmlns:inkscape="http://www.inkscape.org/namespaces/inkscape"
   sodipodi:docname="plugins.svg"
   inkscape:version="1.0 (4035a4fb49, 2020-05-01)"
   id="svg1626"
   version="1.1"
   viewBox="0 0 4.2333332 4.2333332"
   height="16"
   width="16">
  <defs
     id="defs1620" />
  <sodipodi:namedview
     inkscape:document-rotation="0"
     inkscape:window-maximized="1"
     inkscape:window-y="35"
     inkscape:window-x="0"
     inkscape:window-height="837"
     inkscape:window-width="1440"
     units="px"
     showgrid="true"
     inkscape:current-layer="layer2"
     inkscape:document-units="px"
     inkscape:cy="7.1428326"
     inkscape:cx="10.374999"
     inkscape:zoom="28"
     inkscape:pageshadow="2"
     inkscape:pageopacity="0"
     borderopacity="1.0"
     bordercolor="#666666"
     pagecolor="#121316"
     id="base">
    <inkscape:grid
       dotted="false"
       empspacing="20"
       id="grid2171"
       type="xygrid" />
  </sodipodi:namedview>
  <metadata
     id="metadata1623">
    <rdf:RDF>
      <cc:Work
         rdf:about="">
        <dc:format>image/svg+xml</dc:format>
        <dc:type
           rdf:resource="http://purl.org/dc/dcmitype/StillImage" />
        <dc:title />
      </cc:Work>
    </rdf:RDF>
  </metadata>
  <g
     transform="translate(0,-291.70833)"
     id="layer1"
     inkscape:groupmode="layer"
     inkscape:label="Background" />
  <g
     inkscape:label="Icon"
     id="layer2"
     inkscape:groupmode="layer">
    <path
       style="display:inline;fill:#ffffff;fill-opacity:1;stroke:none;stroke-width:0.264583"
       d="m 0.26459697,0.5291665 v 3.175 H 3.9687636 v -3.175 z M 0.5291803,0.79374983 h 3.175 V 2.6458331 h -3.175 z M 1.5875136,1.0583332 c -0.5291666,0 -0.79374997,0.2645833 -0.79374997,1.0583333 H 1.058347 c 0,-0.79375 0.2645833,-0.79375 0.5291666,-0.79375 0.2645834,-2.7e-6 0.396875,0.2441866 0.396875,0.3886068 0,0.1444201 0.1322917,0.6697265 0.6614583,0.6697265 0.5291667,0 0.79375,-0.2645833 0.79375,-1.0583333 l -0.2645833,-2.4e-6 c 0,0.79375 -0.2645833,0.7937524 -0.5291667,0.7937524 -0.2645833,0 -0.396875,-0.2691342 -0.396875,-0.4051432 0,-0.1360091 -0.1322916,-0.6531928 -0.6614583,-0.6531901 z m -0.578776,1.8520833 c 0.00275,-4.32e-5 0.0055,-4.32e-5 0.00826,0 0.013758,-0.00108 0.027588,-0.00108 0.041341,0 0.1385359,0 0.2645834,0.1260477 0.2645834,0.2645833 0,0.1385356 -0.1260475,0.2645833 -0.2645834,0.2645833 -0.1385358,0 -0.2645833,-0.1260477 -0.2645833,-0.2645833 C 0.7916383,3.0515428 0.887439,2.933549 1.0087293,2.9104165 Z m 1.0583333,0 c 0.00275,-4.32e-5 0.0055,-4.32e-5 0.00826,0 0.013758,-0.00108 0.027588,-0.00108 0.041341,0 0.1385358,0 0.2645833,0.1260477 0.2645833,0.2645833 0,0.1385356 -0.1260475,0.2645833 -0.2645833,0.2645833 -0.1385359,0 -0.2645834,-0.1260477 -0.2645834,-0.2645833 -0.00212,-0.123457 0.093684,-0.2414508 0.214974,-0.2645833 z m 1.0583333,0 c 0.00275,-4.32e-5 0.0055,-4.32e-5 0.00825,0 0.013758,-0.00108 0.027588,-0.00108 0.041341,0 0.1385358,0 0.2645833,0.1260477 0.2645833,0.2645833 0,0.1385356 -0.1260475,0.2645833 -0.2645833,0.2645833 -0.1385359,0 -0.2645834,-0.1260477 -0.2645834,-0.2645833 -0.00212,-0.123457 0.093684,-0.2414508 0.214974,-0.2645833 z"
       id="rect4268-1"
       inkscape:connector-curvature="0"
       sodipodi:nodetypes="ccccccccccsccsssccssscccsscccccsscccccsscc" />
  </g>
</svg>
