<?xml version="1.0" encoding="UTF-8" standalone="no"?>
<svg
   xmlns:dc="http://purl.org/dc/elements/1.1/"
   xmlns:cc="http://creativecommons.org/ns#"
   xmlns:rdf="http://www.w3.org/1999/02/22-rdf-syntax-ns#"
   xmlns:svg="http://www.w3.org/2000/svg"
   xmlns="http://www.w3.org/2000/svg"
   xmlns:sodipodi="http://sodipodi.sourceforge.net/DTD/sodipodi-0.dtd"
   xmlns:inkscape="http://www.inkscape.org/namespaces/inkscape"
   sodipodi:docname="unknown_file.svg"
   inkscape:version="1.0 (4035a4fb49, 2020-05-01)"
   id="svg1626"
   version="1.1"
   viewBox="0 0 4.2333332 4.2333332"
   height="16"
   width="16">
  <defs
     id="defs1620" />
  <sodipodi:namedview
     inkscape:document-rotation="0"
     inkscape:window-maximized="1"
     inkscape:window-y="35"
     inkscape:window-x="0"
     inkscape:window-height="837"
     inkscape:window-width="1440"
     units="px"
     showgrid="true"
     inkscape:current-layer="layer2"
     inkscape:document-units="px"
     inkscape:cy="7.7420231"
     inkscape:cx="10.374999"
     inkscape:zoom="28"
     inkscape:pageshadow="2"
     inkscape:pageopacity="0"
     borderopacity="1.0"
     bordercolor="#666666"
     pagecolor="#121316"
     id="base">
    <inkscape:grid
       dotted="false"
       empspacing="20"
       id="grid2171"
       type="xygrid" />
  </sodipodi:namedview>
  <metadata
     id="metadata1623">
    <rdf:RDF>
      <cc:Work
         rdf:about="">
        <dc:format>image/svg+xml</dc:format>
        <dc:type
           rdf:resource="http://purl.org/dc/dcmitype/StillImage" />
        <dc:title />
      </cc:Work>
    </rdf:RDF>
  </metadata>
  <g
     transform="translate(0,-291.70833)"
     id="layer1"
     inkscape:groupmode="layer"
     inkscape:label="Background" />
  <g
     inkscape:label="Icon"
     id="layer2"
     inkscape:groupmode="layer">
    <path
       sodipodi:nodetypes="ccccccccccccccssccccccccccccc"
       inkscape:connector-curvature="0"
       id="path4945-9-4"
       d="M 0.79374997,0.26458333 V 3.96875 H 3.4395832 V 1.3229167 H 2.3812499 V 0.26458333 Z m 1.85208323,0 V 1.0583334 h 0.79375 z M 1.5874999,2.116664 V 1.8520807 c 0,-0.2645833 0.2645833,-0.2645833 0.2645833,-0.2645833 l 0.2645834,2.6e-6 c 0.2645833,2.7e-6 0.5291666,0.2645834 0.5291666,0.5291667 0,0.5291666 -0.5291666,0.79375 -0.5291666,0.79375 V 3.175 H 1.8520832 V 2.6458333 c 0.2645834,0 0.5291667,-0.2645833 0.5291667,-0.5291666 0,0 0,-0.2645833 -0.2645833,-0.2645833 -0.2645834,-2.7e-6 -0.2645834,-2.7e-6 -0.2645834,0.2645806 z M 1.8520832,3.4395833 H 2.1166666 V 3.7041667 H 1.8520832 Z"
       style="display:inline;fill:#ffffff;fill-opacity:1;stroke:none;stroke-width:0.264583" />
  </g>
</svg>
