<?xml version="1.0" encoding="UTF-8" standalone="no"?>
<svg
   xmlns:dc="http://purl.org/dc/elements/1.1/"
   xmlns:cc="http://creativecommons.org/ns#"
   xmlns:rdf="http://www.w3.org/1999/02/22-rdf-syntax-ns#"
   xmlns:svg="http://www.w3.org/2000/svg"
   xmlns="http://www.w3.org/2000/svg"
   xmlns:sodipodi="http://sodipodi.sourceforge.net/DTD/sodipodi-0.dtd"
   xmlns:inkscape="http://www.inkscape.org/namespaces/inkscape"
   sodipodi:docname="colorize.svg"
   inkscape:version="1.0 (4035a4fb49, 2020-05-01)"
   id="svg1626"
   version="1.1"
   viewBox="0 0 5.8208332 5.8208332"
   height="22"
   width="22">
  <defs
     id="defs1620" />
  <sodipodi:namedview
     inkscape:document-rotation="0"
     inkscape:window-maximized="1"
     inkscape:window-y="35"
     inkscape:window-x="0"
     inkscape:window-height="837"
     inkscape:window-width="1440"
     units="px"
     showgrid="true"
     inkscape:current-layer="layer2"
     inkscape:document-units="px"
     inkscape:cy="12.570148"
     inkscape:cx="-0.42199752"
     inkscape:zoom="14"
     inkscape:pageshadow="2"
     inkscape:pageopacity="0"
     borderopacity="1.0"
     bordercolor="#666666"
     pagecolor="#121316"
     id="base">
    <inkscape:grid
       dotted="false"
       empspacing="20"
       id="grid2171"
       type="xygrid" />
  </sodipodi:namedview>
  <metadata
     id="metadata1623">
    <rdf:RDF>
      <cc:Work
         rdf:about="">
        <dc:format>image/svg+xml</dc:format>
        <dc:type
           rdf:resource="http://purl.org/dc/dcmitype/StillImage" />
        <dc:title />
      </cc:Work>
    </rdf:RDF>
  </metadata>
  <g
     transform="translate(0,-291.70833)"
     id="layer1"
     inkscape:groupmode="layer"
     inkscape:label="Background" />
  <g
     inkscape:label="Icon"
     id="layer2"
     inkscape:groupmode="layer">
    <path
       id="path4809"
       d="m 2.9108246,0 v 0.79363888 c 0.584417,0 1.1133508,0.23704412 1.4963405,0.62003042 L 4.9693253,0.85150839 C 4.4011088,0.28329468 3.6555606,0 2.9108246,0 Z"
       style="fill:#0eb487;fill-opacity:1;stroke:none;stroke-width:0.264583"
       inkscape:connector-curvature="0"
       sodipodi:nodetypes="ccccc" />
    <path
       id="path4811"
       d="M 0.85220495,0.85150836 C 0.28406781,1.4197221 5.6e-7,2.1648671 5.6e-7,2.9100091 h 0.79434266 c 0,-0.5844196 0.23700848,-1.1133535 0.61994258,-1.4963398 z"
       style="display:inline;fill:#7f0a1d;fill-opacity:1;stroke:none;stroke-width:0.264583"
       inkscape:connector-curvature="0"
       sodipodi:nodetypes="ccccc" />
    <path
       style="display:inline;fill:#b90934;fill-opacity:1;stroke:none;stroke-width:0.264583"
       d="m 5.6e-7,2.9100091 c 0,0.7451424 0.28406725,1.4902847 0.85220439,2.0585009 L 1.4142858,4.4063493 C 1.0313517,4.0233602 0.79434322,3.494429 0.79434322,2.9100091 Z"
       id="path4813"
       inkscape:connector-curvature="0"
       sodipodi:nodetypes="ccccc" />
    <path
       sodipodi:nodetypes="ccccc"
       inkscape:connector-curvature="0"
       style="display:inline;fill:#3ae1d9;fill-opacity:1;stroke:none;stroke-width:0.264583"
       d="M 4.9686294,0.85150836 C 5.5367666,1.4197221 5.8208338,2.1648671 5.8208338,2.9100091 H 5.0264912 c 0,-0.5844196 -0.2370058,-1.1133535 -0.6199426,-1.4963398 z"
       id="path4815" />
    <path
       sodipodi:nodetypes="ccccc"
       inkscape:connector-curvature="0"
       id="path4817"
       d="m 5.8208338,2.9100091 c 0,0.7451424 -0.2840672,1.4902847 -0.8522044,2.0585009 L 4.4065486,4.4063493 C 4.7894854,4.0233602 5.0264912,3.494429 5.0264912,2.9100091 Z"
       style="display:inline;fill:#1b6a8b;fill-opacity:1;stroke:none;stroke-width:0.264583" />
    <path
       sodipodi:nodetypes="ccccc"
       inkscape:connector-curvature="0"
       style="fill:#3f2e8e;fill-opacity:1;stroke:none;stroke-width:0.264583"
       d="M 2.9108246,5.8208332 V 5.0271944 c 0.584417,0 1.1133508,-0.2370442 1.4963405,-0.6200304 L 4.9693253,4.969325 C 4.4011088,5.5375386 3.6555606,5.8208332 2.9108246,5.8208332 Z"
       id="path4819" />
    <path
       sodipodi:nodetypes="ccccc"
       inkscape:connector-curvature="0"
       id="path4821"
       d="m 2.9108246,5.8208332 c -0.7447385,0 -1.4902867,-0.2832946 -2.05850059,-0.8515082 L 1.4144842,4.407164 c 0.3829897,0.3829862 0.9119209,0.6200304 1.4963404,0.6200304 z"
       style="fill:#712472;fill-opacity:1;stroke:none;stroke-width:0.264583" />
    <path
       sodipodi:nodetypes="ccccc"
       inkscape:connector-curvature="0"
       id="path4823"
       d="M 2.9108246,-3.416654e-8 C 2.1660861,-3.416654e-8 1.4205379,0.28329463 0.85232401,0.8515085 L 1.4144842,1.4136692 C 1.7974739,1.030683 2.3264051,0.79363883 2.9108246,0.79363883 Z"
       style="fill:#088757;fill-opacity:1;stroke:none;stroke-width:0.264583" />
  </g>
</svg>
