<?xml version="1.0" encoding="UTF-8" standalone="no"?>
<svg
   xmlns:dc="http://purl.org/dc/elements/1.1/"
   xmlns:cc="http://creativecommons.org/ns#"
   xmlns:rdf="http://www.w3.org/1999/02/22-rdf-syntax-ns#"
   xmlns:svg="http://www.w3.org/2000/svg"
   xmlns="http://www.w3.org/2000/svg"
   xmlns:sodipodi="http://sodipodi.sourceforge.net/DTD/sodipodi-0.dtd"
   xmlns:inkscape="http://www.inkscape.org/namespaces/inkscape"
   sodipodi:docname="ghost_note.svg"
   inkscape:version="1.0 (4035a4fb49, 2020-05-01)"
   id="svg1626"
   version="1.1"
   viewBox="0 0 5.8208332 5.8208332"
   height="22"
   width="22">
  <defs
     id="defs1620">
    <inkscape:path-effect
       hide_knots="false"
       only_selected="false"
       apply_with_radius="true"
       apply_no_radius="true"
       use_knot_distance="true"
       flexible="false"
       chamfer_steps="1"
       radius="0"
       mode="F"
       method="auto"
       unit="px"
       satellites_param="F,0,0,1,0,0,0,1 @ F,0,0,1,0,0,0,1 @ F,0,0,1,0,0.79374997,0,1 @ F,0,1,1,0,0.79374997,0,1 @ F,0,1,1,0,0.79374997,0,1 @ F,0,0,1,0,0,0,1"
       lpeversion="1"
       is_visible="true"
       id="path-effect70"
       effect="fillet_chamfer" />
    <inkscape:path-effect
       hide_knots="false"
       only_selected="false"
       apply_with_radius="true"
       apply_no_radius="true"
       use_knot_distance="true"
       flexible="false"
       chamfer_steps="1"
       radius="0"
       mode="F"
       method="auto"
       unit="px"
       satellites_param="F,0,0,1,0,0,0,1 @ F,0,0,1,0,0,0,1 @ F,0,0,1,0,0.79374997,0,1 @ F,0,0,1,0,0.79374997,0,1 @ F,0,0,1,0,0.26458347,0,1 @ F,0,1,1,0,0.26458347,0,1 @ F,0,0,1,0,0,0,1"
       lpeversion="1"
       is_visible="true"
       id="path-effect68"
       effect="fillet_chamfer" />
  </defs>
  <sodipodi:namedview
     inkscape:guide-bbox="true"
     showguides="true"
     inkscape:snap-page="true"
     inkscape:snap-text-baseline="true"
     inkscape:snap-center="true"
     inkscape:snap-object-midpoints="true"
     inkscape:snap-bbox-midpoints="true"
     inkscape:snap-bbox-edge-midpoints="true"
     inkscape:bbox-nodes="true"
     inkscape:bbox-paths="true"
     inkscape:snap-bbox="true"
     inkscape:document-rotation="0"
     inkscape:window-maximized="1"
     inkscape:window-y="35"
     inkscape:window-x="0"
     inkscape:window-height="837"
     inkscape:window-width="1440"
     units="px"
     showgrid="true"
     inkscape:current-layer="layer2"
     inkscape:document-units="px"
     inkscape:cy="6.5410912"
     inkscape:cx="5.0380867"
     inkscape:zoom="32"
     inkscape:pageshadow="2"
     inkscape:pageopacity="0"
     borderopacity="1.0"
     bordercolor="#666666"
     pagecolor="#121316"
     id="base">
    <inkscape:grid
       dotted="false"
       empspacing="20"
       id="grid2171"
       type="xygrid" />
  </sodipodi:namedview>
  <metadata
     id="metadata1623">
    <rdf:RDF>
      <cc:Work
         rdf:about="">
        <dc:format>image/svg+xml</dc:format>
        <dc:type
           rdf:resource="http://purl.org/dc/dcmitype/StillImage" />
        <dc:title />
      </cc:Work>
    </rdf:RDF>
  </metadata>
  <g
     transform="translate(0,-291.70833)"
     id="layer1"
     inkscape:groupmode="layer"
     inkscape:label="Background" />
  <g
     inkscape:label="Icon"
     id="layer2"
     inkscape:groupmode="layer">
    <path
       transform="scale(0.26458333)"
       d="M 11.001953 0 C 6.5464511 0 3 2.9709073 3 6.6367188 L 3 22 L 5.6660156 18 L 8.3339844 22 L 11 18 L 13.666016 22 L 16.333984 18 L 19 22 L 19 6.6367188 C 19 2.9709073 15.457456 -1.532218e-07 11.001953 0 z M 9 4 L 10 4 L 10 7.9511719 A 1.9999999 1.9999999 0 0 1 10 8 A 1.9999999 1.9999999 0 0 1 8 10 A 1.9999999 1.9999999 0 0 1 6 8 A 1.9999999 1.9999999 0 0 1 8 6 A 1.9999999 1.9999999 0 0 1 9 6.2695312 L 9 4 z M 15 4 L 16 4 L 16 7.9511719 A 1.9999999 1.9999999 0 0 1 16 8 A 1.9999999 1.9999999 0 0 1 14 10 A 1.9999999 1.9999999 0 0 1 12 8 A 1.9999999 1.9999999 0 0 1 14 6 A 1.9999999 1.9999999 0 0 1 15 6.2695312 L 15 4 z "
       style="opacity:1;fill:#ffffff;stroke-width:0.999999;stroke-linecap:round;stroke-linejoin:round"
       id="path23" />
    <g
       style="stroke-width:0.968246"
       transform="matrix(1.0666666,0,0,1,-0.05291647,0)"
       id="g928" />
    <g
       transform="translate(1.8520834,-0.39687511)"
       id="g923" />
    <g
       id="g948"
       transform="translate(0.26458339,-0.33072939)" />
  </g>
</svg>
