<?xml version="1.0" encoding="UTF-8" standalone="no"?>
<svg
   xmlns:dc="http://purl.org/dc/elements/1.1/"
   xmlns:cc="http://creativecommons.org/ns#"
   xmlns:rdf="http://www.w3.org/1999/02/22-rdf-syntax-ns#"
   xmlns:svg="http://www.w3.org/2000/svg"
   xmlns="http://www.w3.org/2000/svg"
   xmlns:sodipodi="http://sodipodi.sourceforge.net/DTD/sodipodi-0.dtd"
   xmlns:inkscape="http://www.inkscape.org/namespaces/inkscape"
   sodipodi:docname="help.svg"
   inkscape:version="1.0 (4035a4fb49, 2020-05-01)"
   id="svg1626"
   version="1.1"
   viewBox="0 0 5.8208332 5.8208332"
   height="22"
   width="22">
  <defs
     id="defs1620" />
  <sodipodi:namedview
     inkscape:document-rotation="0"
     inkscape:window-maximized="1"
     inkscape:window-y="35"
     inkscape:window-x="0"
     inkscape:window-height="837"
     inkscape:window-width="1440"
     units="px"
     showgrid="true"
     inkscape:current-layer="layer2"
     inkscape:document-units="px"
     inkscape:cy="12.570148"
     inkscape:cx="-0.42199752"
     inkscape:zoom="14"
     inkscape:pageshadow="2"
     inkscape:pageopacity="0"
     borderopacity="1.0"
     bordercolor="#666666"
     pagecolor="#121316"
     id="base">
    <inkscape:grid
       dotted="false"
       empspacing="20"
       id="grid2171"
       type="xygrid" />
  </sodipodi:namedview>
  <metadata
     id="metadata1623">
    <rdf:RDF>
      <cc:Work
         rdf:about="">
        <dc:format>image/svg+xml</dc:format>
        <dc:type
           rdf:resource="http://purl.org/dc/dcmitype/StillImage" />
        <dc:title />
      </cc:Work>
    </rdf:RDF>
  </metadata>
  <g
     transform="translate(0,-291.70833)"
     id="layer1"
     inkscape:groupmode="layer"
     inkscape:label="Background" />
  <g
     inkscape:label="Icon"
     id="layer2"
     inkscape:groupmode="layer">
    <path
       sodipodi:nodetypes="sssssssccssccsccccc"
       inkscape:connector-curvature="0"
       id="path5313"
       d="M 2.9104166,0 C 1.3030385,0 -1e-8,1.3030385 -1e-8,2.9104166 c 0,1.6073781 1.30303851,2.9104166 2.91041661,2.9104166 1.6073781,0 2.9104166,-1.3030385 2.9104166,-2.9104166 C 5.8208332,1.3030385 4.5177947,0 2.9104166,0 Z m 0,0.79374996 c 0.8509661,0 1.3229166,0.47195054 1.3229166,1.32291664 0,1.0272051 -1.0583333,1.058336 -1.0583333,1.8520833 H 2.6458333 c 0,-1.0583307 1.0583333,-1.0816801 1.0583333,-1.8520833 0,-0.5673116 -0.2264384,-0.79375 -0.79375,-0.79375 -0.5673116,0 -0.79375,0.2264384 -0.79375,0.79375 H 1.5875 c 0,-0.8509661 0.4719505,-1.32291664 1.3229166,-1.32291664 z M 2.6458333,4.4979166 H 3.1749999 V 5.0270832 H 2.6458333 Z"
       style="display:inline;fill:#ffffff;stroke:none;stroke-width:0.264583"
       inkscape:export-filename="/home/rene/Icons2.png"
       inkscape:export-xdpi="90"
       inkscape:export-ydpi="90" />
  </g>
</svg>
