<?xml version="1.0" encoding="UTF-8" standalone="no"?>
<svg
   xmlns:dc="http://purl.org/dc/elements/1.1/"
   xmlns:cc="http://creativecommons.org/ns#"
   xmlns:rdf="http://www.w3.org/1999/02/22-rdf-syntax-ns#"
   xmlns:svg="http://www.w3.org/2000/svg"
   xmlns="http://www.w3.org/2000/svg"
   xmlns:sodipodi="http://sodipodi.sourceforge.net/DTD/sodipodi-0.dtd"
   xmlns:inkscape="http://www.inkscape.org/namespaces/inkscape"
   sodipodi:docname="ignore.svg"
   inkscape:version="1.0 (4035a4fb49, 2020-05-01)"
   id="svg1626"
   version="1.1"
   viewBox="0 0 5.8208332 5.8208332"
   height="22"
   width="22">
  <defs
     id="defs1620" />
  <sodipodi:namedview
     inkscape:snap-page="true"
     inkscape:snap-text-baseline="true"
     inkscape:snap-center="true"
     inkscape:snap-object-midpoints="true"
     inkscape:snap-midpoints="true"
     inkscape:snap-smooth-nodes="true"
     inkscape:snap-bbox="true"
     inkscape:document-rotation="0"
     inkscape:window-maximized="1"
     inkscape:window-y="35"
     inkscape:window-x="0"
     inkscape:window-height="837"
     inkscape:window-width="1440"
     units="px"
     showgrid="true"
     inkscape:current-layer="layer2"
     inkscape:document-units="px"
     inkscape:cy="9.4676543"
     inkscape:cx="12.78969"
     inkscape:zoom="16"
     inkscape:pageshadow="2"
     inkscape:pageopacity="0"
     borderopacity="1.0"
     bordercolor="#666666"
     pagecolor="#121316"
     id="base">
    <inkscape:grid
       dotted="false"
       empspacing="20"
       id="grid2171"
       type="xygrid" />
  </sodipodi:namedview>
  <metadata
     id="metadata1623">
    <rdf:RDF>
      <cc:Work
         rdf:about="">
        <dc:format>image/svg+xml</dc:format>
        <dc:type
           rdf:resource="http://purl.org/dc/dcmitype/StillImage" />
        <dc:title />
      </cc:Work>
    </rdf:RDF>
  </metadata>
  <g
     transform="translate(0,-291.70833)"
     id="layer1"
     inkscape:groupmode="layer"
     inkscape:label="Background" />
  <g
     inkscape:label="Icon"
     id="layer2"
     inkscape:groupmode="layer">
    <path
       transform="scale(0.26458333)"
       d="M 10.990234 2 A 8.9999999 8.9999999 0 0 0 2 11 A 8.9999999 8.9999999 0 0 0 11 20 A 8.9999999 8.9999999 0 0 0 20 11 A 8.9999999 8.9999999 0 0 0 11 2 A 8.9999999 8.9999999 0 0 0 10.990234 2 z M 10.882812 4 A 7.0540542 7.0000001 0 0 1 10.884766 4 A 7.0540542 7.0000001 0 0 1 11 4 A 7.0540542 7.0000001 0 0 1 16.527344 6.6503906 L 4.4589844 13.619141 A 7.0540542 7.0000001 0 0 1 3.9453125 11 A 7.0540542 7.0000001 0 0 1 10.882812 4 z M 17.539062 8.3769531 A 7.0540542 7.0000001 0 0 1 18.054688 11 A 7.0540542 7.0000001 0 0 1 11 18 A 7.0540542 7.0000001 0 0 1 5.4726562 15.349609 L 17.539062 8.3769531 z "
       style="fill:#ffffff;stroke:none;stroke-width:2;stroke-linejoin:round"
       id="path846" />
    <g
       style="opacity:1"
       id="g855" />
  </g>
</svg>
