<?xml version="1.0" encoding="UTF-8" standalone="no"?>
<svg
   xmlns:dc="http://purl.org/dc/elements/1.1/"
   xmlns:cc="http://creativecommons.org/ns#"
   xmlns:rdf="http://www.w3.org/1999/02/22-rdf-syntax-ns#"
   xmlns:svg="http://www.w3.org/2000/svg"
   xmlns="http://www.w3.org/2000/svg"
   xmlns:sodipodi="http://sodipodi.sourceforge.net/DTD/sodipodi-0.dtd"
   xmlns:inkscape="http://www.inkscape.org/namespaces/inkscape"
   sodipodi:docname="ports.svg"
   inkscape:version="1.0 (4035a4fb49, 2020-05-01)"
   id="svg1626"
   version="1.1"
   viewBox="0 0 5.8208332 5.8208332"
   height="22"
   width="22">
  <defs
     id="defs1620" />
  <sodipodi:namedview
     inkscape:document-rotation="0"
     inkscape:window-maximized="1"
     inkscape:window-y="35"
     inkscape:window-x="0"
     inkscape:window-height="837"
     inkscape:window-width="1440"
     units="px"
     showgrid="true"
     inkscape:current-layer="layer2"
     inkscape:document-units="px"
     inkscape:cy="12.570148"
     inkscape:cx="-0.42199752"
     inkscape:zoom="14"
     inkscape:pageshadow="2"
     inkscape:pageopacity="0"
     borderopacity="1.0"
     bordercolor="#666666"
     pagecolor="#121316"
     id="base">
    <inkscape:grid
       dotted="false"
       empspacing="20"
       id="grid2171"
       type="xygrid" />
  </sodipodi:namedview>
  <metadata
     id="metadata1623">
    <rdf:RDF>
      <cc:Work
         rdf:about="">
        <dc:format>image/svg+xml</dc:format>
        <dc:type
           rdf:resource="http://purl.org/dc/dcmitype/StillImage" />
        <dc:title />
      </cc:Work>
    </rdf:RDF>
  </metadata>
  <g
     transform="translate(0,-291.70833)"
     id="layer1"
     inkscape:groupmode="layer"
     inkscape:label="Background" />
  <g
     inkscape:label="Icon"
     id="layer2"
     inkscape:groupmode="layer">
    <path
       id="path5715"
       d="m 2.9104164,0.52929762 c -0.7306283,0 -1.3229166,0.59228828 -1.3229166,1.32291668 0,0.4296939 0.2117884,0.8084105 0.5291666,1.0500651 V 2.5550137 C 1.9516908,2.368374 1.8520831,2.1209013 1.8520831,1.8522143 c 0,-0.5845016 0.4738317,-1.05833335 1.0583333,-1.05833335 0.5845016,0 1.0583334,0.47383175 1.0583334,1.05833335 0,0.268687 -0.099608,0.5161597 -0.2645834,0.7027994 V 2.9022794 C 4.0215447,2.6606248 4.2333331,2.2819082 4.2333331,1.8522143 c 0,-0.7306284 -0.5922883,-1.32291668 -1.3229167,-1.32291668 z M 2.6458331,1.5876309 V 1.8522143 2.1167976 H 2.3812498 v 1.5875 H 2.6458331 V 5.8209642 H 3.1749998 V 3.7042976 h 0.2645833 v -1.5875 H 3.1749998 V 1.8522143 1.5876309 Z"
       style="fill:#ffffff;fill-opacity:1;stroke:none;stroke-width:0.264583"
       inkscape:connector-curvature="0" />
  </g>
</svg>
