<?xml version="1.0" encoding="UTF-8" standalone="no"?>
<svg
   xmlns:dc="http://purl.org/dc/elements/1.1/"
   xmlns:cc="http://creativecommons.org/ns#"
   xmlns:rdf="http://www.w3.org/1999/02/22-rdf-syntax-ns#"
   xmlns:svg="http://www.w3.org/2000/svg"
   xmlns="http://www.w3.org/2000/svg"
   xmlns:sodipodi="http://sodipodi.sourceforge.net/DTD/sodipodi-0.dtd"
   xmlns:inkscape="http://www.inkscape.org/namespaces/inkscape"
   sodipodi:docname="restore.svg"
   inkscape:version="1.0 (4035a4fb49, 2020-05-01)"
   id="svg1626"
   version="1.1"
   viewBox="0 0 4.4979164 4.4979164"
   height="17"
   width="17">
  <defs
     id="defs1620" />
  <sodipodi:namedview
     inkscape:document-rotation="0"
     inkscape:window-maximized="1"
     inkscape:window-y="35"
     inkscape:window-x="0"
     inkscape:window-height="837"
     inkscape:window-width="1440"
     units="px"
     showgrid="true"
     inkscape:current-layer="layer2"
     inkscape:document-units="px"
     inkscape:cy="6.433092"
     inkscape:cx="5.2711834"
     inkscape:zoom="25.407334"
     inkscape:pageshadow="2"
     inkscape:pageopacity="0"
     borderopacity="1.0"
     bordercolor="#666666"
     pagecolor="#121316"
     id="base">
    <inkscape:grid
       dotted="false"
       empspacing="14"
       id="grid2171"
       type="xygrid" />
  </sodipodi:namedview>
  <metadata
     id="metadata1623">
    <rdf:RDF>
      <cc:Work
         rdf:about="">
        <dc:format>image/svg+xml</dc:format>
        <dc:type
           rdf:resource="http://purl.org/dc/dcmitype/StillImage" />
        <dc:title></dc:title>
      </cc:Work>
    </rdf:RDF>
  </metadata>
  <g
     sodipodi:insensitive="true"
     transform="translate(0,-293.29583)"
     id="layer1"
     inkscape:groupmode="layer"
     inkscape:label="Background" />
  <g
     transform="translate(0,-1.5875)"
     inkscape:label="Icon"
     id="layer2"
     inkscape:groupmode="layer">
    <g
       transform="matrix(0.26458333,0,0,0.26458333,91.810417,-51.06456)"
       id="g6126"
       style="display:inline" />
    <path
       transform="matrix(0.26458332,0,0,0.26458332,0,1.5875)"
       d="M 6 3 L 6 5 L 6 6 L 7 6 L 7 5 L 13 5 L 13 9 L 12 9 L 12 10 L 13 10 L 14 10 L 14 9 L 14 5 L 14 3 L 6 3 z "
       style="opacity:1;fill:#ffffff;stroke-width:0.999999;stroke-linecap:round;stroke-linejoin:round"
       id="rect24" />
    <path
       transform="matrix(0.26458332,0,0,0.26458332,0,1.5875)"
       d="M 3 7 L 3 14 L 11 14 L 11 7 L 3 7 z M 4 9 L 10 9 L 10 13 L 4 13 L 4 9 z "
       style="opacity:1;fill:#ffffff;stroke-width:0.999999;stroke-linecap:round;stroke-linejoin:round"
       id="rect37" />
  </g>
</svg>
