<?xml version="1.0" encoding="UTF-8" standalone="no"?>
<!-- Created with Inkscape (http://www.inkscape.org/) -->

<svg
   xmlns:dc="http://purl.org/dc/elements/1.1/"
   xmlns:cc="http://creativecommons.org/ns#"
   xmlns:rdf="http://www.w3.org/1999/02/22-rdf-syntax-ns#"
   xmlns:svg="http://www.w3.org/2000/svg"
   xmlns="http://www.w3.org/2000/svg"
   xmlns:xlink="http://www.w3.org/1999/xlink"
   xmlns:sodipodi="http://sodipodi.sourceforge.net/DTD/sodipodi-0.dtd"
   xmlns:inkscape="http://www.inkscape.org/namespaces/inkscape"
   width="132.00005"
   height="137"
   id="svg6125"
   version="1.1"
   inkscape:version="0.91 r13725"
   sodipodi:docname="SmileyNote.svg">
  <title
     id="title3361">Kawaii Old LMMS Logo</title>
  <defs
     id="defs6127">
    <linearGradient
       id="linearGradient7084">
      <stop
         style="stop-color:#000000;stop-opacity:1;"
         offset="0"
         id="stop7086" />
      <stop
         style="stop-color:#000000;stop-opacity:0.66467065;"
         offset="1"
         id="stop7088" />
    </linearGradient>
    <linearGradient
       id="linearGradient7064">
      <stop
         style="stop-color:#33dd73;stop-opacity:1;"
         offset="0"
         id="stop7066" />
      <stop
         style="stop-color:#1db858;stop-opacity:1;"
         offset="1"
         id="stop7068" />
    </linearGradient>
    <linearGradient
       inkscape:collect="always"
       xlink:href="#linearGradient7084"
       id="linearGradient7090"
       x1="330"
       y1="382.36212"
       x2="330"
       y2="372.36221"
       gradientUnits="userSpaceOnUse" />
    <linearGradient
       inkscape:collect="always"
       xlink:href="#linearGradient7084"
       id="linearGradient7092"
       x1="330.00003"
       y1="382.36221"
       x2="330.00003"
       y2="372.36221"
       gradientUnits="userSpaceOnUse" />
    <radialGradient
       inkscape:collect="always"
       xlink:href="#linearGradient7064"
       id="radialGradient7096"
       cx="475.21628"
       cy="417.94644"
       fx="475.21628"
       fy="417.94644"
       r="52.716267"
       gradientTransform="matrix(0.64898669,-5.1735869e-8,3.8946191e-8,0.48855001,166.80722,223.43725)"
       gradientUnits="userSpaceOnUse" />
    <radialGradient
       inkscape:collect="always"
       xlink:href="#linearGradient7064"
       id="radialGradient7113"
       gradientUnits="userSpaceOnUse"
       gradientTransform="matrix(0.64898669,-5.1735869e-8,3.8946191e-8,0.48855001,168.30722,222.95007)"
       cx="475.21628"
       cy="417.94644"
       fx="475.21628"
       fy="417.94644"
       r="52.716267" />
    <linearGradient
       inkscape:collect="always"
       xlink:href="#linearGradient7084"
       id="linearGradient7115"
       gradientUnits="userSpaceOnUse"
       x1="330"
       y1="382.36212"
       x2="330"
       y2="372.36221"
       gradientTransform="matrix(0.8000029,0,0,1.2000115,198.49904,-878.71393)" />
    <linearGradient
       inkscape:collect="always"
       xlink:href="#linearGradient7084"
       id="linearGradient7117"
       gradientUnits="userSpaceOnUse"
       x1="330.00003"
       y1="382.36221"
       x2="330.00003"
       y2="372.36221"
       gradientTransform="matrix(0.8000029,0,0,1.2000014,226.49902,-878.71018)" />
  </defs>
  <sodipodi:namedview
     id="base"
     pagecolor="#ffffff"
     bordercolor="#666666"
     borderopacity="1.0"
     inkscape:pageopacity="0.0"
     inkscape:pageshadow="2"
     inkscape:zoom="2.8284271"
     inkscape:cx="62.453542"
     inkscape:cy="80.714386"
     inkscape:document-units="px"
     inkscape:current-layer="layer1"
     showgrid="true"
     inkscape:window-width="1600"
     inkscape:window-height="806"
     inkscape:window-x="0"
     inkscape:window-y="32"
     inkscape:window-maximized="0"
     fit-margin-top="0"
     fit-margin-left="0"
     fit-margin-right="0"
     fit-margin-bottom="0"
     inkscape:snap-bbox="true"
     inkscape:bbox-paths="true"
     inkscape:bbox-nodes="true"
     inkscape:snap-bbox-edge-midpoints="true"
     inkscape:snap-bbox-midpoints="true"
     inkscape:object-paths="true"
     inkscape:snap-intersection-paths="true"
     inkscape:object-nodes="true"
     inkscape:snap-smooth-nodes="true"
     inkscape:snap-midpoints="true"
     inkscape:snap-object-midpoints="true"
     inkscape:snap-center="true">
    <inkscape:grid
       type="xygrid"
       id="grid6168"
       empspacing="5"
       visible="true"
       enabled="true"
       snapvisiblegridlinesonly="true"
       originx="0"
       originy="0" />
  </sodipodi:namedview>
  <metadata
     id="metadata6130">
    <rdf:RDF>
      <cc:Work
         rdf:about="">
        <dc:format>image/svg+xml</dc:format>
        <dc:type
           rdf:resource="http://purl.org/dc/dcmitype/StillImage" />
        <dc:title>Kawaii Old LMMS Logo</dc:title>
        <dc:creator>
          <cc:Agent>
            <dc:title>Rebecca DeField</dc:title>
          </cc:Agent>
        </dc:creator>
        <dc:description>lol</dc:description>
        <cc:license
           rdf:resource="http://creativecommons.org/publicdomain/zero/1.0/" />
      </cc:Work>
      <cc:License
         rdf:about="http://creativecommons.org/publicdomain/zero/1.0/">
        <cc:permits
           rdf:resource="http://creativecommons.org/ns#Reproduction" />
        <cc:permits
           rdf:resource="http://creativecommons.org/ns#Distribution" />
        <cc:permits
           rdf:resource="http://creativecommons.org/ns#DerivativeWorks" />
      </cc:License>
    </rdf:RDF>
  </metadata>
  <g
     inkscape:label="Layer 1"
     inkscape:groupmode="layer"
     id="layer1"
     transform="translate(-414.5,-316.87498)">
    <g
       id="g6985"
       transform="translate(3.995261e-5,0)"
       style="fill:#0bd556;fill-opacity:1" />
    <g
       id="g7098"
       inkscape:export-filename="/media/freedrive/RebeccaCurrent2016/Personal Projects/LMMS Theme Source Files/LMMSSmiley.png"
       inkscape:export-xdpi="300"
       inkscape:export-ydpi="300">
      <path
         sodipodi:nodetypes="sssssssss"
         inkscape:connector-curvature="0"
         id="rect7027"
         d="m 431.5,411.875 10,0 c 2.77,0 5,2.23 5,5 l 0,25 c 0,2.77 -2.23,5 -5,5 l -10,0 c -2.77,0 -5,-2.23 -5,-5 l 0,-25 c 0,-2.77 2.23,-5 5,-5 z"
         style="fill:#2b2b2b;fill-opacity:1;stroke:none" />
      <rect
         style="fill:#2b2b2b;fill-opacity:1;stroke:none"
         id="rect7029"
         width="20"
         height="35"
         x="506.5"
         y="411.875"
         rx="5"
         ry="5" />
      <path
         sodipodi:nodetypes="ccccc"
         inkscape:connector-curvature="0"
         id="rect7040"
         d="m 416.5,401.875 10,-5 0,35 -10,0 z"
         style="fill:#2b2b2b;fill-opacity:1;stroke:none" />
      <path
         sodipodi:nodetypes="cscc"
         inkscape:connector-curvature="0"
         id="path7035"
         d="m 426.5,441.87501 c -6.62742,0 -12,-5.59644 -12,-12.50001 0,-6.90356 5.37258,-12.5 12,-12.5 z"
         style="fill:#767676;fill-opacity:1;stroke:none" />
      <path
         sodipodi:nodetypes="ccccc"
         inkscape:connector-curvature="0"
         id="rect7042"
         d="m 526.5,396.875 10,5 0,30 -10,0 z"
         style="fill:#2b2b2b;fill-opacity:1;stroke:none" />
      <path
         style="fill:#767676;fill-opacity:1;stroke:none"
         d="m 526.5,441.875 c 6.62742,0 12,-5.59644 12,-12.5 0,-6.90356 -5.37258,-12.5 -12,-12.5 z"
         id="path7038"
         inkscape:connector-curvature="0"
         sodipodi:nodetypes="cscc" />
      <path
         sodipodi:nodetypes="sccsccs"
         inkscape:connector-curvature="0"
         id="path7050"
         d="m 476.5,351.88782 c -33.13709,0 -60,22.38576 -60,50 15,-0.0128 15,-5.01282 15,-5.01282 2.83548,-17.20772 22.10467,-29.98718 45,-29.98718 22.97685,0 42.26939,12.69038 45,29.98718 0,0 0,5 15,5.01282 0,-27.61424 -26.86291,-50 -60,-50 z"
         style="fill:#9c9c9c;fill-opacity:1;stroke:none" />
      <path
         id="path6174"
         d="m 496.5,316.87498 0,90 c -5.67043,-2.9679 -12.5608,-4.98716 -19.99995,-4.98716 -19.32998,0 -35,11.75252 -35,26.25 0,14.49748 15.66997,25.73716 34.99995,25.73716 19.32998,0 35.00005,-11.23968 35.00005,-25.73716 0,-0.42217 -0.005,-0.86396 -0.0312,-1.28125 l 0.0312,0.0312 0,-80 c 14.21529,-0.18735 25.00004,10.00001 35,30 -5e-5,-30.01278 -35,-60 -35,-60 z"
         style="fill:url(#radialGradient7113);fill-opacity:1;stroke:none"
         inkscape:connector-curvature="0"
         sodipodi:nodetypes="ccsssscccccc" />
      <path
         sodipodi:open="true"
         sodipodi:type="arc"
         style="opacity:0.5;fill:none;stroke:#000000;stroke-width:4;stroke-linecap:round;stroke-linejoin:miter;stroke-miterlimit:4;stroke-dasharray:none;stroke-opacity:1"
         id="path6180"
         sodipodi:cx="476.5"
         sodipodi:cy="436.87503"
         sodipodi:rx="4.9999819"
         sodipodi:ry="4.9999819"
         d="m 481.49998,436.87503 a 4.9999819,4.9999819 0 0 1 -2.49999,4.33011 4.9999819,4.9999819 0 0 1 -4.99998,0 4.9999819,4.9999819 0 0 1 -2.49999,-4.33011"
         sodipodi:start="0"
         sodipodi:end="3.1415927" />
      <path
         sodipodi:nodetypes="cssscsccssscsc"
         inkscape:connector-curvature="0"
         id="path7072"
         d="m 486.5625,426.54407 c -0.033,0.3105 -0.0625,0.6137 -0.0625,0.9375 0,3.3137 1.79086,6.39343 4,6.39343 2.20914,0 4,-3.07973 4,-6.39343 0,-0.26558 -0.0402,-0.52479 -0.0625,-0.78125 -0.26487,2.9286 -1.91246,5.1875 -3.9375,5.1875 -2.06024,0 -3.71817,-2.341 -3.9375,-5.34375 z m -28,0.15625 c -0.0223,0.25683 -0.0625,0.51566 -0.0625,0.78125 0,3.31373 1.79086,6.39343 4,6.39343 2.20914,0 4,-3.0797 4,-6.39343 0,-0.26559 -0.0402,-0.52442 -0.0625,-0.78125 -0.26487,2.92862 -1.91246,5.1875 -3.9375,5.1875 -2.02505,0 -3.67263,-2.25888 -3.9375,-5.1875 z"
         style="opacity:0.3;fill:#7bffac;fill-opacity:1;stroke:none" />
      <ellipse
         transform="scale(1,-1)"
         id="path6172"
         style="opacity:0.5;fill:url(#linearGradient7115);fill-opacity:1;stroke:none"
         cx="462.5"
         cy="-425.87497"
         rx="4"
         ry="6.0000358" />
      <ellipse
         style="opacity:0.5;fill:url(#linearGradient7117);fill-opacity:1;stroke:none"
         id="path6170"
         transform="scale(1,-1)"
         cx="490.49997"
         cy="-425.87503"
         rx="4"
         ry="5.9999852" />
      <path
         style="opacity:0.69583333;fill:#000000;fill-opacity:1;stroke:none"
         d="m 486.5625,425.21875 c -0.033,-0.3105 -0.0625,-0.6137 -0.0625,-0.9375 0,-3.3137 1.79086,-6.39343 4,-6.39343 2.20914,0 4,3.07973 4,6.39343 0,0.26558 -0.0402,0.52479 -0.0625,0.78125 -0.26487,-2.9286 -1.91246,-5.1875 -3.9375,-5.1875 -2.06024,0 -3.71817,2.341 -3.9375,5.34375 z m -28,-0.15625 c -0.0223,-0.25683 -0.0625,-0.51566 -0.0625,-0.78125 0,-3.31373 1.79086,-6.39343 4,-6.39343 2.20914,0 4,3.0797 4,6.39343 0,0.26559 -0.0402,0.52442 -0.0625,0.78125 -0.26487,-2.92862 -1.91246,-5.1875 -3.9375,-5.1875 -2.02505,0 -3.67263,2.25888 -3.9375,5.1875 z"
         id="path7094"
         inkscape:connector-curvature="0"
         sodipodi:nodetypes="cssscsccssscsc" />
    </g>
  </g>
</svg>
