<?xml version="1.0" encoding="UTF-8" standalone="no"?>
<svg
   xmlns:dc="http://purl.org/dc/elements/1.1/"
   xmlns:cc="http://creativecommons.org/ns#"
   xmlns:rdf="http://www.w3.org/1999/02/22-rdf-syntax-ns#"
   xmlns:svg="http://www.w3.org/2000/svg"
   xmlns="http://www.w3.org/2000/svg"
   xmlns:sodipodi="http://sodipodi.sourceforge.net/DTD/sodipodi-0.dtd"
   xmlns:inkscape="http://www.inkscape.org/namespaces/inkscape"
   width="20"
   height="20"
   viewBox="0 0 5.2916665 5.2916665"
   version="1.1"
   id="svg1626"
   inkscape:version="1.0 (4035a4fb49, 2020-05-01)"
   sodipodi:docname="controller.svg">
  <defs
     id="defs1620" />
  <sodipodi:namedview
     id="base"
     pagecolor="#121316"
     bordercolor="#666666"
     borderopacity="1.0"
     inkscape:pageopacity="0"
     inkscape:pageshadow="2"
     inkscape:zoom="19.79899"
     inkscape:cx="10.374999"
     inkscape:cy="7.4778948"
     inkscape:document-units="px"
     inkscape:current-layer="layer2"
     showgrid="true"
     units="px"
     inkscape:window-width="1440"
     inkscape:window-height="837"
     inkscape:window-x="0"
     inkscape:window-y="35"
     inkscape:window-maximized="1"
     inkscape:document-rotation="0">
    <inkscape:grid
       type="xygrid"
       id="grid2171"
       empspacing="20"
       dotted="false" />
  </sodipodi:namedview>
  <metadata
     id="metadata1623">
    <rdf:RDF>
      <cc:Work
         rdf:about="">
        <dc:format>image/svg+xml</dc:format>
        <dc:type
           rdf:resource="http://purl.org/dc/dcmitype/StillImage" />
        <dc:title />
      </cc:Work>
    </rdf:RDF>
  </metadata>
  <g
     inkscape:label="Background"
     inkscape:groupmode="layer"
     id="layer1"
     transform="translate(0,-291.70833)" />
  <g
     inkscape:groupmode="layer"
     id="layer2"
     inkscape:label="Icon">
    <g
       id="g5843"
       transform="matrix(0.26458333,0,0,0.26458333,27.516666,36.495971)">
      <g
         transform="translate(15,9.49997)"
         id="g5846">
        <path
           style="display:inline;fill:#ffffff;fill-opacity:1;stroke:none"
           d="m 435,145 c -0.34366,0 -0.66636,0.025 -1,0.0625 v 8.75 h 2 v -8.75 C 435.66636,145.025 435.34366,145 435,145 Z"
           transform="translate(-544,-290.5)"
           id="rect5848"
           inkscape:connector-curvature="0" />
        <path
           style="fill:#ffffff;fill-opacity:1;stroke:none"
           d="m 435,145 c -4.97056,0 -9,4.02944 -9,9 0,2.14366 0.74875,4.11044 2,5.65625 L 426,161 h 5 v -5 l -1.5,2.25 c -0.92159,-1.18322 -1.5,-2.633 -1.5,-4.25 0,-3.86599 3.13401,-7 7,-7 z"
           transform="translate(-544,-290.5)"
           id="path4657"
           inkscape:connector-curvature="0" />
        <path
           id="path4660"
           d="m -109,-145.5 c 4.97056,0 9,4.02944 9,9 0,2.14366 -0.74875,4.11044 -2,5.65625 l 2,1.34375 h -5 v -5 l 1.5,2.25 c 0.92159,-1.18322 1.5,-2.633 1.5,-4.25 0,-3.86599 -3.13401,-7 -7,-7 z"
           style="opacity:0.45;fill:#ffffff;fill-opacity:1;stroke:none"
           inkscape:connector-curvature="0" />
      </g>
    </g>
  </g>
</svg>
