<?xml version="1.0" encoding="UTF-8" standalone="no"?>
<svg
   xmlns:dc="http://purl.org/dc/elements/1.1/"
   xmlns:cc="http://creativecommons.org/ns#"
   xmlns:rdf="http://www.w3.org/1999/02/22-rdf-syntax-ns#"
   xmlns:svg="http://www.w3.org/2000/svg"
   xmlns="http://www.w3.org/2000/svg"
   xmlns:sodipodi="http://sodipodi.sourceforge.net/DTD/sodipodi-0.dtd"
   xmlns:inkscape="http://www.inkscape.org/namespaces/inkscape"
   width="20"
   height="20"
   viewBox="0 0 5.2916665 5.2916665"
   version="1.1"
   id="svg1626"
   inkscape:version="1.0 (4035a4fb49, 2020-05-01)"
   sodipodi:docname="edit_select.svg">
  <defs
     id="defs1620" />
  <sodipodi:namedview
     id="base"
     pagecolor="#121316"
     bordercolor="#666666"
     borderopacity="1.0"
     inkscape:pageopacity="0"
     inkscape:pageshadow="2"
     inkscape:zoom="28"
     inkscape:cx="10.374999"
     inkscape:cy="7.1428326"
     inkscape:document-units="px"
     inkscape:current-layer="layer2"
     showgrid="true"
     units="px"
     inkscape:window-width="1440"
     inkscape:window-height="837"
     inkscape:window-x="0"
     inkscape:window-y="35"
     inkscape:window-maximized="1"
     inkscape:document-rotation="0">
    <inkscape:grid
       type="xygrid"
       id="grid2171"
       empspacing="20"
       dotted="false" />
  </sodipodi:namedview>
  <metadata
     id="metadata1623">
    <rdf:RDF>
      <cc:Work
         rdf:about="">
        <dc:format>image/svg+xml</dc:format>
        <dc:type
           rdf:resource="http://purl.org/dc/dcmitype/StillImage" />
        <dc:title />
      </cc:Work>
    </rdf:RDF>
  </metadata>
  <g
     inkscape:label="Background"
     inkscape:groupmode="layer"
     id="layer1"
     transform="translate(0,-291.70833)" />
  <g
     inkscape:groupmode="layer"
     id="layer2"
     inkscape:label="Icon">
    <path
       style="display:inline;fill:#ffffff;fill-opacity:1;stroke:none;stroke-width:0.264583"
       d="M -9.41667e-8,3.799968e-7 V 0.52916704 H 0.52916657 V 3.799968e-7 Z m 0.7937499941667,0 V 0.52916704 H 1.3229166 V 3.799968e-7 Z m 0.79375,0 V 0.52916704 H 2.1166665 V 3.799968e-7 Z m 0.79375,0 V 0.52916704 H 2.9104165 V 3.799968e-7 Z m 0.79375,0 V 0.52916704 H 3.7041665 V 3.799968e-7 Z m 0.79375,0 V 0.52916704 H 4.4979165 V 3.799968e-7 Z m 0.7937499,0 V 0.52916704 H 5.2916665 V 3.799968e-7 Z M -9.41667e-8,0.79375037 V 1.322917 H 0.52916657 V 0.79375037 Z m 4.7624998941667,0 V 1.322917 H 5.2916665 V 0.79375037 Z M -9.41667e-8,1.5875004 V 2.116667 H 0.52916657 V 1.5875004 Z m 4.7624998941667,0 V 2.116667 H 5.2916665 V 1.5875004 Z M -9.41667e-8,2.3812503 V 2.910417 H 0.52916657 V 2.3812503 Z m 4.7624998941667,0 V 2.910417 H 5.2916665 V 2.3812503 Z M -9.41667e-8,3.1750003 V 3.7041678 H 0.52916657 V 3.1750003 Z m 4.7624998941667,0 V 3.7041678 H 5.2916665 V 3.1750003 Z M -9.41667e-8,3.9687511 V 4.4979178 H 0.52916657 V 3.9687511 Z m 4.7624998941667,0 V 4.4979178 H 5.2916665 V 3.9687511 Z M -9.41667e-8,4.7625011 V 5.2916678 H 0.52916657 V 4.7625011 Z m 0.7937499941667,0 V 5.2916678 H 1.3229166 V 4.7625011 Z m 0.79375,0 V 5.2916678 H 2.1166665 V 4.7625011 Z m 0.79375,0 V 5.2916678 H 2.9104165 V 4.7625011 Z m 0.79375,0 V 5.2916678 H 3.7041665 V 4.7625011 Z m 0.79375,0 V 5.2916678 H 4.4979165 V 4.7625011 Z m 0.7937499,0 V 5.2916678 H 5.2916665 V 4.7625011 Z"
       id="rect4262-4"
       inkscape:connector-curvature="0" />
  </g>
</svg>
