<?xml version="1.0" encoding="UTF-8" standalone="no"?>
<svg
   xmlns:dc="http://purl.org/dc/elements/1.1/"
   xmlns:cc="http://creativecommons.org/ns#"
   xmlns:rdf="http://www.w3.org/1999/02/22-rdf-syntax-ns#"
   xmlns:svg="http://www.w3.org/2000/svg"
   xmlns="http://www.w3.org/2000/svg"
   xmlns:sodipodi="http://sodipodi.sourceforge.net/DTD/sodipodi-0.dtd"
   xmlns:inkscape="http://www.inkscape.org/namespaces/inkscape"
   width="20"
   height="20"
   viewBox="0 0 5.2916665 5.2916665"
   version="1.1"
   id="svg1626"
   inkscape:version="1.0 (4035a4fb49, 2020-05-01)"
   sodipodi:docname="edit_cut.svg">
  <defs
     id="defs1620" />
  <sodipodi:namedview
     id="base"
     pagecolor="#121316"
     bordercolor="#666666"
     borderopacity="1.0"
     inkscape:pageopacity="0"
     inkscape:pageshadow="2"
     inkscape:zoom="28"
     inkscape:cx="10.374999"
     inkscape:cy="7.1428326"
     inkscape:document-units="px"
     inkscape:current-layer="layer2"
     showgrid="true"
     units="px"
     inkscape:window-width="1440"
     inkscape:window-height="837"
     inkscape:window-x="0"
     inkscape:window-y="35"
     inkscape:window-maximized="1"
     inkscape:document-rotation="0">
    <inkscape:grid
       type="xygrid"
       id="grid2171"
       empspacing="20"
       dotted="false" />
  </sodipodi:namedview>
  <metadata
     id="metadata1623">
    <rdf:RDF>
      <cc:Work
         rdf:about="">
        <dc:format>image/svg+xml</dc:format>
        <dc:type
           rdf:resource="http://purl.org/dc/dcmitype/StillImage" />
        <dc:title />
      </cc:Work>
    </rdf:RDF>
  </metadata>
  <g
     inkscape:label="Background"
     inkscape:groupmode="layer"
     id="layer1"
     transform="translate(0,-291.70833)" />
  <g
     inkscape:groupmode="layer"
     id="layer2"
     inkscape:label="Icon">
    <g
       id="g4849"
       transform="matrix(0.26458333,0,0,0.26458333,71.966666,17.462513)">
      <path
         style="fill:#ffffff;fill-opacity:1;stroke:none"
         d="m 32,266 v 4 l 12,12 c 1.78846,-0.39893 3,-2.0913 3,-4 0,-2.20914 -1.79086,-4 -4,-4 -0.84635,0 -1.60998,0.30155 -2.25,0.75 z m 12,0 -5.5,5.5 2,2 3.5,-3.5 z m -11,8 c -2.20914,0 -4,1.79086 -4,4 0,1.9087 1.21154,3.60107 3,4 l 5.5,-5.5 -2,-2 -0.25,0.25 C 34.60998,274.30155 33.84635,274 33,274 Z m 0,1 c 1.08482,0 2.0356,0.57486 2.5625,1.4375 l -4.125,4.125 C 30.57486,280.0356 30,279.08481 30,278 c 0,-1.65685 1.34314,-3 3,-3 z m 10,0 c 1.65686,0 3,1.34315 3,3 0,1.08481 -0.57486,2.0356 -1.4375,2.5625 l -4.125,-4.125 C 40.9644,275.57486 41.91518,275 43,275 Z"
         transform="translate(-300.00003,-330.0001)"
         id="rect4763"
         inkscape:connector-curvature="0"
         sodipodi:nodetypes="cccsscccccccssccccssccssssccs" />
    </g>
  </g>
</svg>
