<?xml version="1.0" encoding="UTF-8" standalone="no"?>
<svg
   xmlns:dc="http://purl.org/dc/elements/1.1/"
   xmlns:cc="http://creativecommons.org/ns#"
   xmlns:rdf="http://www.w3.org/1999/02/22-rdf-syntax-ns#"
   xmlns:svg="http://www.w3.org/2000/svg"
   xmlns="http://www.w3.org/2000/svg"
   xmlns:sodipodi="http://sodipodi.sourceforge.net/DTD/sodipodi-0.dtd"
   xmlns:inkscape="http://www.inkscape.org/namespaces/inkscape"
   width="20"
   height="20"
   viewBox="0 0 5.2916665 5.2916665"
   version="1.1"
   id="svg1626"
   inkscape:version="1.0 (4035a4fb49, 2020-05-01)"
   sodipodi:docname="loop_points_on.svg">
  <defs
     id="defs1620" />
  <sodipodi:namedview
     id="base"
     pagecolor="#121316"
     bordercolor="#666666"
     borderopacity="1.0"
     inkscape:pageopacity="0"
     inkscape:pageshadow="2"
     inkscape:zoom="28"
     inkscape:cx="10.374999"
     inkscape:cy="7.1428326"
     inkscape:document-units="px"
     inkscape:current-layer="layer2"
     showgrid="true"
     units="px"
     inkscape:window-width="1440"
     inkscape:window-height="837"
     inkscape:window-x="0"
     inkscape:window-y="35"
     inkscape:window-maximized="1"
     inkscape:document-rotation="0">
    <inkscape:grid
       type="xygrid"
       id="grid2171"
       empspacing="20"
       dotted="false" />
  </sodipodi:namedview>
  <metadata
     id="metadata1623">
    <rdf:RDF>
      <cc:Work
         rdf:about="">
        <dc:format>image/svg+xml</dc:format>
        <dc:type
           rdf:resource="http://purl.org/dc/dcmitype/StillImage" />
        <dc:title />
      </cc:Work>
    </rdf:RDF>
  </metadata>
  <g
     inkscape:label="Background"
     inkscape:groupmode="layer"
     id="layer1"
     transform="translate(0,-291.70833)" />
  <g
     inkscape:groupmode="layer"
     id="layer2"
     inkscape:label="Icon">
    <path
       style="fill:#ffffff;fill-opacity:1;stroke:none;stroke-width:0.264583"
       d="m 1.1906251,1.3229162 c -0.36644795,0 -0.66145836,0.2950104 -0.66145836,0.6614583 v 1.3229167 c 0,0.3664479 0.29501041,0.6614583 0.66145836,0.6614583 H 2.1166667 V 3.4395828 h -0.79375 c -0.1465791,0 -0.2645833,-0.1180041 -0.2645833,-0.2645833 V 2.1166662 c 0,-0.1465792 0.1180042,-0.2645833 0.2645833,-0.2645833 H 3.96875 c 0.1465792,0 0.2645834,0.1180041 0.2645834,0.2645833 v 1.0583333 c 0,0.1465792 -0.1180042,0.2645833 -0.2645834,0.2645833 H 3.7041667 v -0.79375 L 2.6458334,3.7041662 3.7041667,4.7624995 v -0.79375 h 0.396875 C 4.4674896,3.9687495 4.7625,3.6737391 4.7625,3.3072912 V 1.9843745 c 0,-0.3664479 -0.2950104,-0.6614583 -0.6614583,-0.6614583 z"
       id="rect5804-3"
       inkscape:connector-curvature="0"
       sodipodi:nodetypes="ssssccsssssssscccccsssss" />
  </g>
</svg>
