<?xml version="1.0" encoding="UTF-8" standalone="no"?>
<svg
   xmlns:dc="http://purl.org/dc/elements/1.1/"
   xmlns:cc="http://creativecommons.org/ns#"
   xmlns:rdf="http://www.w3.org/1999/02/22-rdf-syntax-ns#"
   xmlns:svg="http://www.w3.org/2000/svg"
   xmlns="http://www.w3.org/2000/svg"
   xmlns:sodipodi="http://sodipodi.sourceforge.net/DTD/sodipodi-0.dtd"
   xmlns:inkscape="http://www.inkscape.org/namespaces/inkscape"
   width="20"
   height="20"
   viewBox="0 0 5.2916665 5.2916665"
   version="1.1"
   id="svg1626"
   inkscape:version="1.0 (4035a4fb49, 2020-05-01)"
   sodipodi:docname="record_step_off.svg">
  <defs
     id="defs1620">
    <inkscape:path-effect
       hide_knots="false"
       only_selected="false"
       apply_with_radius="true"
       apply_no_radius="true"
       use_knot_distance="true"
       flexible="false"
       chamfer_steps="1"
       radius="0"
       mode="F"
       method="auto"
       unit="px"
       satellites_param="F,0,0,1,0,0,0,1 @ F,0,0,1,0,0.52916672,0,1 @ F,0,1,1,0,0.52916662,0,1 @ F,0,1,1,0,0.52916662,0,1 @ F,0,0,1,0,0.52916662,0,1 @ F,0,1,1,0,0.52916662,0,1 @ F,0,0,1,0,0.52916663,0,1 @ F,0,0,1,0,0,0,1"
       lpeversion="1"
       is_visible="true"
       id="path-effect852"
       effect="fillet_chamfer" />
  </defs>
  <sodipodi:namedview
     inkscape:snap-bbox-midpoints="true"
     inkscape:snap-bbox-edge-midpoints="true"
     inkscape:bbox-nodes="true"
     inkscape:bbox-paths="true"
     inkscape:snap-page="true"
     inkscape:snap-text-baseline="true"
     inkscape:snap-center="true"
     inkscape:snap-object-midpoints="true"
     inkscape:snap-bbox="true"
     id="base"
     pagecolor="#121316"
     bordercolor="#666666"
     borderopacity="1.0"
     inkscape:pageopacity="0"
     inkscape:pageshadow="2"
     inkscape:zoom="16"
     inkscape:cx="9.5794431"
     inkscape:cy="14.127166"
     inkscape:document-units="px"
     inkscape:current-layer="layer2"
     showgrid="true"
     units="px"
     inkscape:window-width="1440"
     inkscape:window-height="837"
     inkscape:window-x="0"
     inkscape:window-y="35"
     inkscape:window-maximized="1"
     inkscape:document-rotation="0">
    <inkscape:grid
       type="xygrid"
       id="grid2171"
       empspacing="20"
       dotted="false" />
  </sodipodi:namedview>
  <metadata
     id="metadata1623">
    <rdf:RDF>
      <cc:Work
         rdf:about="">
        <dc:format>image/svg+xml</dc:format>
        <dc:type
           rdf:resource="http://purl.org/dc/dcmitype/StillImage" />
        <dc:title />
      </cc:Work>
    </rdf:RDF>
  </metadata>
  <g
     inkscape:label="Background"
     inkscape:groupmode="layer"
     id="layer1"
     transform="translate(0,-291.70833)" />
  <g
     inkscape:groupmode="layer"
     id="layer2"
     inkscape:label="Icon">
    <path
       transform="scale(0.26458333)"
       d="M 10 2 A 8 8 0 0 0 2 10 A 8 8 0 0 0 10 18 A 8 8 0 0 0 18 10 A 8 8 0 0 0 10 2 z M 8.9980469 4.9980469 L 10.998047 4.9980469 C 12.643057 4.9980469 14.003906 6.3569432 14.003906 8.0019531 L 12.003906 8.0019531 C 12.003906 7.4378242 11.562176 6.9980469 10.998047 6.9980469 L 8.9980469 6.9980469 C 8.4339184 6.9980469 8.0019531 7.4378242 8.0019531 8.0019531 C 8.0019531 8.566082 8.433918 8.9980469 8.9980469 8.9980469 L 10.998047 8.9980469 C 12.643057 8.9980469 14.003906 10.358897 14.003906 12.003906 C 14.003906 13.648916 12.643057 15 10.998047 15 L 8.9980469 15 C 7.3530369 15 6.0019535 13.648917 6.0019531 12.003906 L 8.0019531 12.003906 C 8.0019531 12.568036 8.4339176 13 8.9980469 13 L 10.998047 13 C 11.562176 13 12.003906 12.568036 12.003906 12.003906 C 12.003906 11.439777 11.562176 10.998047 10.998047 10.998047 L 8.9980469 10.998047 C 7.3530366 10.998047 6.0019531 9.6469631 6.0019531 8.0019531 C 6.0019531 6.3569432 7.3530369 4.9980469 8.9980469 4.9980469 z "
       style="fill:#ffffff;stroke-width:2;stroke-linejoin:round"
       id="path846" />
  </g>
</svg>
