<?xml version="1.0" encoding="UTF-8" standalone="no"?>
<svg
   xmlns:dc="http://purl.org/dc/elements/1.1/"
   xmlns:cc="http://creativecommons.org/ns#"
   xmlns:rdf="http://www.w3.org/1999/02/22-rdf-syntax-ns#"
   xmlns:svg="http://www.w3.org/2000/svg"
   xmlns="http://www.w3.org/2000/svg"
   xmlns:sodipodi="http://sodipodi.sourceforge.net/DTD/sodipodi-0.dtd"
   xmlns:inkscape="http://www.inkscape.org/namespaces/inkscape"
   width="20"
   height="20"
   viewBox="0 0 5.2916665 5.2916665"
   version="1.1"
   id="svg1626"
   inkscape:version="1.0 (4035a4fb49, 2020-05-01)"
   sodipodi:docname="record.svg">
  <defs
     id="defs1620" />
  <sodipodi:namedview
     id="base"
     pagecolor="#121316"
     bordercolor="#666666"
     borderopacity="1.0"
     inkscape:pageopacity="0"
     inkscape:pageshadow="2"
     inkscape:zoom="28"
     inkscape:cx="10.374999"
     inkscape:cy="7.1428326"
     inkscape:document-units="px"
     inkscape:current-layer="layer2"
     showgrid="true"
     units="px"
     inkscape:window-width="1440"
     inkscape:window-height="837"
     inkscape:window-x="0"
     inkscape:window-y="35"
     inkscape:window-maximized="1"
     inkscape:document-rotation="0">
    <inkscape:grid
       type="xygrid"
       id="grid2171"
       empspacing="20"
       dotted="false" />
  </sodipodi:namedview>
  <metadata
     id="metadata1623">
    <rdf:RDF>
      <cc:Work
         rdf:about="">
        <dc:format>image/svg+xml</dc:format>
        <dc:type
           rdf:resource="http://purl.org/dc/dcmitype/StillImage" />
        <dc:title />
      </cc:Work>
    </rdf:RDF>
  </metadata>
  <g
     inkscape:label="Background"
     inkscape:groupmode="layer"
     id="layer1"
     transform="translate(0,-291.70833)" />
  <g
     inkscape:groupmode="layer"
     id="layer2"
     inkscape:label="Icon">
    <path
       style="display:inline;fill:#ffffff;fill-opacity:1;fill-rule:nonzero;stroke:none;stroke-width:0.264583"
       d="M 2.6458329,0.52916704 A 2.1166666,2.1166666 0 0 0 0.52916623,2.6458337 2.1166666,2.1166666 0 0 0 2.6458329,4.7625003 2.1166666,2.1166666 0 0 0 4.7624995,2.6458337 2.1166666,2.1166666 0 0 0 2.6458329,0.52916704 Z m 0,1.05833336 A 1.0583333,1.0583333 0 0 1 3.7041662,2.6458337 1.0583333,1.0583333 0 0 1 2.6458329,3.704167 1.0583333,1.0583333 0 0 1 1.5874995,2.6458337 1.0583333,1.0583333 0 0 1 2.6458329,1.5875004 Z"
       id="path4147"
       inkscape:connector-curvature="0" />
  </g>
</svg>
