<?xml version="1.0" encoding="UTF-8" standalone="no"?>
<svg
   xmlns:dc="http://purl.org/dc/elements/1.1/"
   xmlns:cc="http://creativecommons.org/ns#"
   xmlns:rdf="http://www.w3.org/1999/02/22-rdf-syntax-ns#"
   xmlns:svg="http://www.w3.org/2000/svg"
   xmlns="http://www.w3.org/2000/svg"
   xmlns:sodipodi="http://sodipodi.sourceforge.net/DTD/sodipodi-0.dtd"
   xmlns:inkscape="http://www.inkscape.org/namespaces/inkscape"
   width="20"
   height="20"
   viewBox="0 0 5.2916665 5.2916665"
   version="1.1"
   id="svg1626"
   inkscape:version="1.0 (4035a4fb49, 2020-05-01)"
   sodipodi:docname="trackop.svg">
  <defs
     id="defs1620" />
  <sodipodi:namedview
     id="base"
     pagecolor="#121316"
     bordercolor="#666666"
     borderopacity="1.0"
     inkscape:pageopacity="0"
     inkscape:pageshadow="2"
     inkscape:zoom="9.8994949"
     inkscape:cx="-1.6619152"
     inkscape:cy="15.972086"
     inkscape:document-units="px"
     inkscape:current-layer="layer2"
     showgrid="true"
     units="px"
     inkscape:window-width="1440"
     inkscape:window-height="837"
     inkscape:window-x="0"
     inkscape:window-y="35"
     inkscape:window-maximized="1"
     inkscape:document-rotation="0">
    <inkscape:grid
       type="xygrid"
       id="grid2171"
       empspacing="20"
       dotted="false" />
  </sodipodi:namedview>
  <metadata
     id="metadata1623">
    <rdf:RDF>
      <cc:Work
         rdf:about="">
        <dc:format>image/svg+xml</dc:format>
        <dc:type
           rdf:resource="http://purl.org/dc/dcmitype/StillImage" />
        <dc:title />
      </cc:Work>
    </rdf:RDF>
  </metadata>
  <g
     inkscape:label="Background"
     inkscape:groupmode="layer"
     id="layer1"
     transform="translate(0,-291.70833)" />
  <g
     inkscape:groupmode="layer"
     id="layer2"
     inkscape:label="Icon">
    <path
       inkscape:export-ydpi="90"
       inkscape:export-xdpi="90"
       inkscape:export-filename="/home/rene/Icons2.png"
       inkscape:connector-curvature="0"
       id="rect10051"
       d="M 2.3812499,-1.5e-8 V 0.81855464 C 2.0664064,0.86381162 1.7807357,0.98301699 1.5378906,1.1658203 L 0.9591145,0.58704423 0.5870442,0.95911453 1.1658203,1.5378906 C 0.983017,1.7807357 0.8638116,2.0664064 0.8185546,2.3812499 H 0 V 2.9104166 H 0.8185546 C 0.8638116,3.2252601 0.983017,3.5109308 1.1658203,3.7537759 L 0.5870442,4.3325519 0.9591145,4.7046222 1.5378906,4.1258462 C 1.7807357,4.3086495 2.0664064,4.4278549 2.3812499,4.4731118 V 5.2916665 H 2.9104166 V 4.4731118 C 3.2252601,4.4278549 3.5109308,4.3086495 3.7537759,4.1258462 l 0.578776,0.578776 0.3720703,-0.3720703 -0.578776,-0.578776 C 4.3086495,3.5109308 4.4278549,3.2252601 4.4731118,2.9104166 H 5.2916665 V 2.3812499 H 4.4731118 C 4.4278549,2.0664064 4.3086495,1.7807357 4.1258462,1.5378906 L 4.7046222,0.95911453 4.3325519,0.58704423 3.7537759,1.1658203 C 3.5109308,0.98301699 3.2252601,0.86381162 2.9104166,0.81855464 V 0.78548173 -1.5e-8 Z M 2.6458333,1.5874999 c 0.5845016,0 1.0583332,0.4738317 1.0583332,1.0583334 0,0.5845016 -0.4738316,1.0583332 -1.0583332,1.0583332 -0.5845017,0 -1.0583334,-0.4738316 -1.0583334,-1.0583332 0,-0.5845017 0.4738317,-1.0583334 1.0583334,-1.0583334 z"
       style="display:inline;fill:#ffffff;fill-opacity:1;stroke:none;stroke-width:0.264583" />
  </g>
</svg>
