<?xml version="1.0" encoding="UTF-8" standalone="no"?>
<svg
   xmlns:dc="http://purl.org/dc/elements/1.1/"
   xmlns:cc="http://creativecommons.org/ns#"
   xmlns:rdf="http://www.w3.org/1999/02/22-rdf-syntax-ns#"
   xmlns:svg="http://www.w3.org/2000/svg"
   xmlns="http://www.w3.org/2000/svg"
   xmlns:sodipodi="http://sodipodi.sourceforge.net/DTD/sodipodi-0.dtd"
   xmlns:inkscape="http://www.inkscape.org/namespaces/inkscape"
   sodipodi:docname="plugins.svg"
   inkscape:version="1.0 (4035a4fb49, 2020-05-01)"
   id="svg1626"
   version="1.1"
   viewBox="0 0 8.4666665 8.4666665"
   height="32"
   width="32">
  <defs
     id="defs1620" />
  <sodipodi:namedview
     inkscape:document-rotation="0"
     inkscape:window-maximized="1"
     inkscape:window-y="35"
     inkscape:window-x="0"
     inkscape:window-height="837"
     inkscape:window-width="1440"
     units="px"
     showgrid="true"
     inkscape:current-layer="layer2"
     inkscape:document-units="px"
     inkscape:cy="12.570148"
     inkscape:cx="8.1494311"
     inkscape:zoom="14"
     inkscape:pageshadow="2"
     inkscape:pageopacity="0"
     borderopacity="1.0"
     bordercolor="#666666"
     pagecolor="#121316"
     id="base">
    <inkscape:grid
       dotted="false"
       empspacing="20"
       id="grid2171"
       type="xygrid" />
  </sodipodi:namedview>
  <metadata
     id="metadata1623">
    <rdf:RDF>
      <cc:Work
         rdf:about="">
        <dc:format>image/svg+xml</dc:format>
        <dc:type
           rdf:resource="http://purl.org/dc/dcmitype/StillImage" />
        <dc:title />
      </cc:Work>
    </rdf:RDF>
  </metadata>
  <g
     transform="translate(0,-291.70833)"
     id="layer1"
     inkscape:groupmode="layer"
     inkscape:label="Background" />
  <g
     inkscape:label="Icon"
     id="layer2"
     inkscape:groupmode="layer">
    <path
       sodipodi:nodetypes="ccccccccccsccsssccssscccsscccccsscccccsscc"
       inkscape:connector-curvature="0"
       id="path1778"
       d="M 0.52916794,1.058345 V 7.4083449 H 7.9375012 V 1.058345 Z M 1.0583346,1.5875117 H 7.4083345 V 5.2916783 H 1.0583346 Z m 2.1166666,0.5291666 c -1.0583333,0 -1.5874999,0.5291667 -1.5874999,2.1166667 h 0.5291666 c 0,-1.5875 0.5291667,-1.5875 1.0583333,-1.5875 0.5291667,-5.3e-6 0.79375,0.4883732 0.79375,0.7772135 0,0.2888403 0.2645834,1.3394531 1.3229167,1.3394531 1.0583333,0 1.5875,-0.5291666 1.5875,-2.1166666 l -0.5291667,-4.8e-6 c 0,1.5875 -0.5291667,1.5875048 -1.0583333,1.5875048 -0.5291667,0 -0.79375,-0.5382684 -0.79375,-0.8102865 0,-0.2720181 -0.2645833,-1.3063855 -1.3229167,-1.3063802 z m -1.157552,3.7041666 c 0.0055,-8.62e-5 0.011007,-8.62e-5 0.01651,0 0.027517,-0.00217 0.055176,-0.00217 0.082682,0 0.2770716,0 0.5291666,0.2520956 0.5291666,0.5291667 0,0.2770711 -0.252095,0.5291667 -0.5291666,0.5291667 -0.2770717,0 -0.5291667,-0.2520956 -0.5291667,-0.5291667 C 1.5832415,6.1030977 1.7748421,5.86711 2.0174227,5.8208449 Z m 2.1166666,0 c 0.0055,-8.62e-5 0.011007,-8.62e-5 0.01651,0 0.027517,-0.00217 0.055176,-0.00217 0.082682,0 0.2770717,0 0.5291667,0.2520956 0.5291667,0.5291667 0,0.2770711 -0.252095,0.5291667 -0.5291667,0.5291667 -0.2770717,0 -0.5291667,-0.2520956 -0.5291667,-0.5291667 C 3.6999081,6.1030977 3.8915088,5.86711 4.1340894,5.8208449 Z m 2.1166667,0 c 0.0055,-8.62e-5 0.011007,-8.62e-5 0.01651,0 0.027517,-0.00217 0.055176,-0.00217 0.082682,0 0.2770717,0 0.5291667,0.2520956 0.5291667,0.5291667 0,0.2770711 -0.252095,0.5291667 -0.5291667,0.5291667 -0.2770716,0 -0.5291666,-0.2520956 -0.5291666,-0.5291667 C 5.8165747,6.1030977 6.0081754,5.86711 6.250756,5.8208449 Z"
       style="display:inline;fill:#ffffff;fill-opacity:1;stroke:none;stroke-width:0.264583" />
  </g>
</svg>
